<svg width="24" height="24" fill="none" xmlns="http://www.w3.org/2000/svg"><path fill-rule="evenodd" clip-rule="evenodd" d="M12.4 3.045a3.1 3.1 0 00-3.1 3.1v1.999h6.2V6.145a3.1 3.1 0 00-3.1-3.1zm4.9 5.099V6.145a4.9 4.9 0 10-9.8 0v1.999H5.9a1.9 1.9 0 00-1.9 1.9v10.811c0 1.05.85 1.9 1.9 1.9h13a1.9 1.9 0 001.9-1.9V10.043a1.9 1.9 0 00-1.9-1.9h-1.6zm-11.4 1.8a.1.1 0 00-.1.1v10.811a.1.1 0 00.1.1h13a.1.1 0 00.1-.1V10.043a.1.1 0 00-.1-.1h-13zm3.5 2.07a1 1 0 11-2 0 1 1 0 012 0zm7 1a1 1 0 100-2 1 1 0 000 2z" fill="#282A33"/></svg>