<svg width="55" height="55" fill="none" xmlns="http://www.w3.org/2000/svg"><g clip-path="url(#clip0)" fill="#B69C60"><path d="M50.606 46.914H34.24a21.257 21.257 0 006.244-3.996h3.145c6.27 0 11.372-5.1 11.372-11.371a6.058 6.058 0 00-6.051-6.051h-1.611V22.5a2.044 2.044 0 00-2.042-2.042H6.972A2.044 2.044 0 004.931 22.5v3.574a.806.806 0 001.61 0V22.5c0-.237.194-.43.431-.43h9.58v3.686a1.97 1.97 0 00-.595.411l-3.025 3.053a1.962 1.962 0 00-.57 1.389v6.736c0 1.087.884 1.972 1.972 1.972h6.049a1.975 1.975 0 001.973-1.972V30.61a1.96 1.96 0 00-.572-1.389L18.76 26.17a1.972 1.972 0 00-.596-.412V22.07h27.132c.237 0 .43.194.43.431v4.825c-.002 10.773-8.765 19.588-19.592 19.588-9.886 0-18.246-7.388-19.445-17.184a.805.805 0 10-1.6.195c.952 7.77 6.063 14.14 12.937 16.99H1.662A1.663 1.663 0 000 48.575a4.235 4.235 0 004.23 4.23h34.59a.806.806 0 100-1.61H4.23a2.622 2.622 0 01-2.619-2.62.05.05 0 01.05-.05h48.945a.05.05 0 01.05.05 2.622 2.622 0 01-2.618 2.62H42.58a.806.806 0 100 1.61h5.458a4.235 4.235 0 004.23-4.23c0-.916-.745-1.662-1.662-1.662zM20.64 30.355a.36.36 0 01.104.255v6.736a.361.361 0 01-.361.361h-6.049a.362.362 0 01-.361-.361V30.61a.36.36 0 01.104-.255l2.476-2.499v2.292a.806.806 0 001.611 0v-2.292l2.476 2.5zm26.532-.383h1.777c.868 0 1.575.706 1.575 1.575 0 3.61-2.79 6.58-6.328 6.87a21.059 21.059 0 002.976-8.445zm.166-2.865h1.61a4.445 4.445 0 014.44 4.44c0 5.382-4.378 9.76-9.76 9.76h-1.557a21.52 21.52 0 001.019-1.254h.538c4.69 0 8.507-3.816 8.507-8.506a3.19 3.19 0 00-3.186-3.186h-1.637c.02-.416.026-.837.026-1.254zm-22.265-8.784c.44 0 .796-.356.796-.796 0-1.972 2.122-2.104 2.122-4.845 0-2.744-2.122-2.87-2.122-4.846 0-1.97 2.122-2.107 2.122-4.847a.796.796 0 10-1.592 0c0 1.973-2.122 2.105-2.122 4.847 0 2.744 2.122 2.869 2.122 4.846 0 1.972-2.122 2.104-2.122 4.845 0 .44.356.796.796.796zm6.016 0c.44 0 .796-.356.796-.796 0-1.972 2.122-2.104 2.122-4.845 0-2.744-2.122-2.87-2.122-4.846 0-1.97 2.122-2.107 2.122-4.847a.796.796 0 00-1.591 0c0 1.973-2.123 2.105-2.123 4.847 0 2.744 2.123 2.869 2.123 4.846 0 1.972-2.123 2.104-2.123 4.845 0 .44.357.796.796.796zm-12.032 0c.44 0 .796-.356.796-.796 0-1.972 2.122-2.104 2.122-4.845 0-2.744-2.122-2.87-2.122-4.846 0-1.97 2.122-2.107 2.122-4.847a.796.796 0 10-1.592 0c0 1.973-2.122 2.105-2.122 4.847 0 2.744 2.122 2.869 2.122 4.846 0 1.972-2.122 2.104-2.122 4.845 0 .44.356.796.796.796z"/></g><defs><clipPath id="clip0"><path fill="#fff" d="M0 0h55v55H0z"/></clipPath></defs></svg>