<svg width="55" height="55" fill="none" xmlns="http://www.w3.org/2000/svg"><g clip-path="url(#clip0)" fill="#B69C60"><path d="M51.333 11.557a6.985 6.985 0 00-5.406-5.298.873.873 0 10-.35 1.71 5.235 5.235 0 014.053 3.972.873.873 0 101.703-.384z"/><path d="M47.13 2.362a.873.873 0 00-1.358-.71c-1.778 1.19-4.082 1.846-6.488 1.846-3.27 0-6.29-1.203-8.076-3.218-.33-.373-.975-.373-1.306 0-1.787 2.015-4.806 3.218-8.076 3.218-2.064 0-4.032-.473-5.692-1.368a.874.874 0 00-1.288.76c-.002.201-.003.405-.003.609 0 3.286.946 4.941 1.86 6.542.378.662.736 1.287 1.021 2.026a.873.873 0 101.628-.628c-.332-.863-.74-1.575-1.133-2.263-.758-1.327-1.478-2.587-1.61-4.9 1.603.637 3.38.97 5.217.97 3.397 0 6.586-1.16 8.729-3.14 2.142 1.979 5.332 3.14 8.729 3.14 2.178 0 4.294-.48 6.105-1.365-.069 2.57-.826 3.895-1.626 5.295-.392.687-.798 1.397-1.13 2.257a.873.873 0 001.628.63c.285-.738.641-1.361 1.018-2.021.915-1.6 1.86-3.256 1.86-6.543 0-.382-.002-.76-.008-1.137zm-.671 19.669a113.59 113.59 0 01-.819-1.232.873.873 0 00-1.464.95c.264.408.544.825.833 1.255 2.505 3.735 5.623 8.383 5.623 17.157 0 4.735-1.215 9.25-3.519 13.094H34.047v-1.746a.873.873 0 00-.873-.873h-3.492a.873.873 0 00-.872.873v1.746H15.743c-2.304-3.843-3.52-8.359-3.52-13.094 0-8.797 2.81-13.452 5.069-17.192l.416-.691a.873.873 0 10-1.498-.896l-.413.685c-2.245 3.718-5.32 8.811-5.32 18.094 0 5.232 1.397 10.222 4.038 14.43.16.255.439.41.74.41h14.427a.873.873 0 00.873-.874v-1.745H32.3v1.745c0 .482.39.873.872.873H47.6c.3 0 .58-.154.74-.409 2.641-4.208 4.037-9.197 4.037-14.43 0-9.306-3.421-14.406-5.92-18.13z"/><path d="M51.59 32.894a26.77 26.77 0 00-.931-3.125.874.874 0 00-1.117-.52c-5.511 1.999-12.077 3.055-18.987 3.055-6.298 0-12.382-.891-17.593-2.577a.875.875 0 00-1.103.573 29.174 29.174 0 00-.67 2.592.873.873 0 00.638 1.026c4.906 1.25 10.375 6.221 14.275 12.975a38.618 38.618 0 012.407 4.94.873.873 0 00.81.548h4.228a.873.873 0 00.81-.55 38.716 38.716 0 012.408-4.938c3.873-6.709 9.314-11.673 14.197-12.957a.873.873 0 00.629-1.042zM35.254 46.021a40.67 40.67 0 00-2.291 4.615h-3.057a40.666 40.666 0 00-2.291-4.615c-3.917-6.785-9.418-11.893-14.538-13.558.065-.27.134-.539.207-.806 5.186 1.567 11.136 2.393 17.272 2.393 6.767 0 13.227-.989 18.747-2.866.142.431.272.87.39 1.312-5.09 1.7-10.553 6.793-14.44 13.525zm15.378-34.667H3.495a.873.873 0 00-.873.873v9.602c0 .482.391.873.873.873h38.337c5.334 0 9.673-4.34 9.673-9.673v-.802a.873.873 0 00-.873-.873zm-8.8 9.602H4.368V13.1h45.39c-.038 4.339-3.579 7.856-7.926 7.856z"/><path d="M8.732 12.227a.873.873 0 00-.872.873v3.492a.873.873 0 001.745 0V13.1a.873.873 0 00-.873-.873zm4.365 0a.873.873 0 00-.873.873v5.238a.873.873 0 001.746 0V13.1a.873.873 0 00-.873-.873zm4.364 0a.873.873 0 00-.872.873v3.492a.873.873 0 001.745 0V13.1a.873.873 0 00-.873-.873zm4.365 0a.873.873 0 00-.873.873v5.238a.873.873 0 001.746 0V13.1a.873.873 0 00-.873-.873zm4.364 0a.873.873 0 00-.872.873v3.492a.873.873 0 001.745 0V13.1a.873.873 0 00-.873-.873zm4.365 0a.873.873 0 00-.873.873v5.238a.873.873 0 001.746 0V13.1a.873.873 0 00-.873-.873zm4.365 0a.873.873 0 00-.873.873v3.492a.873.873 0 001.745 0V13.1a.873.873 0 00-.872-.873zm4.364 0a.873.873 0 00-.873.873v5.238a.873.873 0 001.746 0V13.1a.873.873 0 00-.873-.873zm4.365 0a.873.873 0 00-.873.873v3.492a.873.873 0 001.745 0V13.1a.873.873 0 00-.872-.873z"/></g><defs><clipPath id="clip0"><path fill="#fff" d="M0 0h55v55H0z"/></clipPath></defs></svg>