<svg width="55" height="55" fill="none" xmlns="http://www.w3.org/2000/svg"><g clip-path="url(#clip0)"><path d="M.63 37.536l.982.327a41.897 41.897 0 0112.964 7.051l7.767 6.215a.858.858 0 00.169.091l-.006.012 3.16 1.58v2.184h1.832v-13.29l3.3-2.474-.01-.012a.965.965 0 00.108-.073 37.038 37.038 0 0121.491-10.511l1.803-.226a.916.916 0 00.189-1.774l-7.625-2.668c-6.21-2.174-13.007 1.1-15.18 7.31-.041.115-.08.231-.116.348l-1.996 6.317-1.964 1.473V26.223a5.245 5.245 0 012.342-4.374l-.01-.015a.875.875 0 00.15-.1 18.157 18.157 0 005.28-13.965L34.83.866a.917.917 0 00-.786-.85.925.925 0 00-.99.6L30.088 8.91a28.637 28.637 0 00-1.674 9.657v2.065a7.067 7.067 0 00-2.75 5.59v1.816l-.932-.932a16.147 16.147 0 00-11.043-14.95L7.626 10.14a.916.916 0 00-1.186 1.07l1.009 4.548a16.081 16.081 0 0015.792 12.66h.212l2.213 2.213v20.133l-1.834-.916v-1.885c0-7.922-6.422-14.343-14.343-14.343a14.34 14.34 0 00-4.536.737l-4.322 1.44a.916.916 0 000 1.742v-.002zm32.575-5.36a10.103 10.103 0 019.603-7.053 10.12 10.12 0 013.342.573l4.048 1.417a38.955 38.955 0 00-18.05 8.409l1.057-3.346zm-2.957-13.608a26.83 26.83 0 011.565-9.04L33.28 5.43l.152 2.453a16.326 16.326 0 01-3.184 10.741v-.056zM9.24 15.354l-.66-2.968 4.528 1.51a14.314 14.314 0 019.591 11.18l-7.384-7.385-1.296 1.296 7.494 7.495A14.242 14.242 0 019.24 15.354zm-3.706 20.74c6.553-2.185 13.637 1.356 15.822 7.91.426 1.276.643 2.613.642 3.958v.544l-6.278-5.021a43.675 43.675 0 00-11.953-6.801l1.767-.59z" fill="#B69C60"/></g><defs><clipPath id="clip0"><path fill="#fff" d="M0 0h55v55H0z"/></clipPath></defs></svg>