<svg width="92" height="65" fill="none" xmlns="http://www.w3.org/2000/svg"><g clip-path="url(#clip0)" fill-rule="evenodd" clip-rule="evenodd"><path d="M54.087 56.248c0 .412.031.68.095.803a.66.66 0 00.287.185c.446.145 1.37.217 2.772.217v.278h-9.303v-.278c.617 0 1.175-.02 1.672-.062.44-.029.875-.112 1.294-.247.127-.104.191-.401.191-.901V39.69c0-.412-.064-.706-.19-.87a.842.842 0 00-.383-.31c-.382-.103-1.232-.155-2.55-.154v-.278l6.118-.526-.004 18.696z" fill="url(#paint0_linear)"/><path d="M22.909 53.188c.198-.34-.498-1.168-.697-2.236-.498-2.626-1.145-6.611-1.443-7.681-1.394-5.153-3.533-10.208-.498-15.264 1.294-2.77 2.488-4.375 1.642-7.488-.199-.729-2.24-3.792-2.986-3.597-.253 1.652 4.43 3.889 1.393 8.555-1.691 2.625-3.532 4.813-3.034 8.944.547 4.959 3.334 10.744 4.678 16.723.547 2.187.1 2.042.945 2.042" fill="url(#paint1_linear)"/><path d="M5.487 9.078c-.2-.954-1.792-.614-2.79-.988 5.673-1.737 16.72 8.45 22.343 5.246.895-.545 1.392-1.363 1.84-2.35.299-.545 1.344-2.419 1.344-2.76-2.485-.204-2.237 4.326-5.919 4.562-4.429.242-11.349-4.834-17.565-5.516C3.347 7.136-.237 7.306.013 8.33c.148.545 1.74.34 2.587.409 1.045.068 1.938.409 2.887.34" fill="url(#paint2_linear)"/><path d="M22.852 8.27c-.15-2.426-5.026-4.246-5.872-1.587-.796 2.474 1.842 5.32 3.982 5.46 1.938.094 2.637-1.867 1.144-1.12-.995.514-2.537 0-3.384-.933-1.192-1.4-1.445-3.64-.149-4.107.746-.325 2.24.7 2.737 1.074.796.513.547 1.073 1.542 1.213z" fill="url(#paint3_linear)"/><path d="M5.615 9.04c-.2-.954-1.791-.613-2.787-.989 5.673-1.737 16.725 8.45 22.343 5.248.896-.546 1.394-1.363 1.841-2.351.3-.545 1.343-2.42 1.343-2.76-2.487-.205-2.238 4.326-5.92 4.565-4.429.238-11.346-4.837-17.566-5.518C3.476 7.1-.104 7.27.142 8.291c.149.545 1.74.337 2.587.409 1.045.068 1.938.409 2.886.336" fill="url(#paint4_linear)"/><path d="M34.048.24c-.912.36-1.726 1.153-2.03 1.514-3.982 4.57-5.176 11.863-5.226 18.715 0 4.038.597 8.02.548 11.132-.153 11.379-3.536 17.26-4.332 25.67-.199 2.041-.15 7.584 1.938 7.729a.338.338 0 00.026-.066c.035.005.069.01.103.012.26-.464-.754-2.134-1.06-3.267a2.41 2.41 0 01-.064-.42c-.199-3.598 1.044-9.14 1.939-12.494.603-2.205 1.146-4.42 1.575-6.676.63-3.19 1.042-6.456 1.042-9.905-.149-4.084-.843-7.875-.843-11.52.05-4.91.747-9.966 3.185-15.265a8.786 8.786 0 013.334-4.082c.498-.341 1.195-.535 1.294-1.262-.47-.124-.967-.021-1.428.185z" fill="url(#paint5_linear)"/><path d="M5.615 9.04c-.2-.954-1.791-.613-2.787-.989 5.673-1.737 16.725 8.45 22.343 5.248.896-.546 1.394-1.363 1.841-2.351.3-.545 1.343-2.42 1.343-2.76-2.487-.205-2.238 4.326-5.92 4.565-4.429.238-11.346-4.837-17.566-5.518C3.476 7.1-.104 7.27.142 8.291c.149.545 1.74.337 2.587.409 1.045.068 1.938.409 2.886.336" fill="url(#paint6_linear)"/><path d="M64.122 44.536v11.707c0 .412.032.68.097.808a.66.66 0 00.286.185c.446.145 1.37.217 2.772.217v.278h-9.303v-.278c.618 0 1.175-.02 1.672-.062.438-.03.87-.112 1.287-.247.128-.109.192-.406.192-.907v-9.651c0-.397-.042-.644-.128-.747-.149-.21-.286-.336-.414-.376-.382-.102-1.253-.154-2.613-.155v-.277l6.152-.495z" fill="url(#paint7_linear)"/><path d="M42.293 39.272a960.846 960.846 0 012.076-1.76v6.736l-.253-.093c-.297-1.803-1.073-3.315-2.326-4.538-1.253-1.223-2.676-1.832-4.268-1.828-1.106 0-2.06.247-2.866.742-.998.597-1.497 1.467-1.497 2.622 0 1.112.541 2.013 1.62 2.714.913.597 2.375 1.122 4.386 1.575 2.606.613 4.313 1.199 5.118 1.757 1.313.926 1.97 2.468 1.97 4.627 0 2.034-.68 3.607-2.039 4.717-1.149.949-2.541 1.423-4.178 1.423-1.253 0-2.373-.196-3.36-.589-.988-.393-1.843-1.04-2.565-1.943-1.274 1.626-1.944 2.47-2.008 2.534v-8.529l.253-.03c.404 1.771.86 3.193 1.37 4.264.425.905.925 1.657 1.498 2.255 1.124 1.174 2.76 1.761 4.906 1.762.996 0 1.963-.337 2.74-.958.956-.737 1.433-1.663 1.433-2.777 0-1.36-.648-2.425-1.938-3.208-.892-.535-2.444-1.096-4.657-1.683s-3.755-1.19-4.625-1.808c-1.269-.925-1.906-2.282-1.906-4.053 0-1.592.58-2.938 1.741-4.039a5.77 5.77 0 014.138-1.658c1.359 0 2.479.195 3.35.59.279.126.91.52 1.887 1.176z" fill="url(#paint8_linear)"/><path d="M83.211 28.344c2.383 0 4.203-.706 5.46-2.12 1.259-1.413 1.888-3.548 1.89-6.405h.385v8.87H71.59v-.287c.868 0 1.608-.029 2.22-.085.612-.056 1.031-.128 1.258-.217.224-.087.372-.192.444-.317.069-.129.103-.46.103-.994V12.045c0-.555-.04-.905-.118-1.038-.04-.077-.169-.153-.4-.23-.23-.076-.674-.153-1.331-.23a18.976 18.976 0 00-2.176-.115v-.258h12.164v.258c-1.104 0-1.968.028-2.59.084-.622.056-1.06.133-1.316.23-.253.096-.405.182-.444.258-.1.168-.149.522-.149 1.038V26.76c0 .555.04.915.12 1.068.038.076.157.153.354.229.666.192 1.83.287 3.482.287z" fill="url(#paint9_linear)"/><path d="M63.146 28.344c2.382 0 4.202-.706 5.46-2.12 1.26-1.413 1.889-3.548 1.89-6.405h.382v8.87H51.525v-.287c.868 0 1.608-.029 2.22-.085.612-.056 1.031-.128 1.258-.217.226-.085.374-.192.444-.317.07-.124.103-.46.103-.994V12.045c0-.555-.04-.905-.118-1.038-.04-.077-.174-.154-.4-.23-.226-.076-.67-.153-1.331-.23a18.999 18.999 0 00-2.176-.115v-.258H63.69v.258c-1.107 0-1.97.028-2.587.084-.618.056-1.057.133-1.317.23-.257.096-.405.182-.445.258-.098.168-.147.522-.147 1.038V26.76c0 .555.039.915.118 1.068.04.077.158.153.355.229.664.192 1.828.287 3.48.287z" fill="url(#paint10_linear)"/><path d="M92 57.731v-.278c-.275 0-.62-.02-1.035-.062-.415-.04-.701-.092-.86-.154-.16-.062-.26-.134-.303-.217-.064-.123-.095-.38-.095-.777v-8.205a3.23 3.23 0 00-.983-2.355c-.787-.785-1.834-1.178-3.144-1.178-.084 0-.217.01-.398.031-.162.02-.325.03-.488.031-.927.103-1.662.59-2.191 1.478-.314.551-.558 1.303-.728 2.246 0-1.108-.318-2-.961-2.678-.701-.739-1.735-1.108-3.102-1.108a5.75 5.75 0 00-.367.016c-.16.01-.35.025-.563.046-.96.103-1.686.629-2.177 1.571-.297.577-.52 1.355-.67 2.338v-3.94l-5.73.525v.279c1.147 0 1.88.051 2.199.154.106.042.233.165.382.37a.745.745 0 01.143.439c.01.185.017.37.017.556v9.384c0 .5-.064.797-.192.901a5.24 5.24 0 01-1.227.247 14.78 14.78 0 01-1.354.062v.278h8.057v-.278c-.277 0-.622-.02-1.036-.062-.414-.04-.701-.092-.86-.154a.675.675 0 01-.303-.186c-.063-.128-.095-.396-.095-.808v-6.088c.212-1.53.499-2.714.86-3.538.531-1.178 1.275-1.768 2.23-1.771.744 0 1.254.42 1.53 1.272.168.52.252 1.271.252 2.265v7.86c0 .495-.063.797-.191.901l-.224.093c-.446.144-1.072.216-1.88.216v.278H84.1v-.278a8.526 8.526 0 01-1.096-.077 4.877 4.877 0 01-.812-.155.575.575 0 01-.287-.168c-.064-.129-.095-.396-.095-.808v-6.213c.297-2.01.725-3.396 1.285-4.162.488-.685 1.11-1.024 1.858-1.024.728 0 1.227.42 1.508 1.272.168.54.252 1.292.252 2.265v7.86c0 .474-.064.767-.19.87a2.569 2.569 0 01-.893.293c-.392.036-.786.052-1.18.047v.278H92z" fill="url(#paint11_linear)"/><path d="M48.802 28.184c-.295-.143-.591-.609-.888-1.397L41.522 9.94h-.59l-5.003 13.51c-.652 1.747-1.186 2.898-1.602 3.454-.747.996-1.802 1.493-3.163 1.493v.292h7.52v-.287c-1.006 0-1.786-.154-2.339-.46-.552-.311-.828-.818-.828-1.53 0-.46.118-1.01.354-1.646l.909-2.536h5.706l1.88 5.075.059.287c0 .33-.277.546-.829.652-.552.105-1.568.158-3.048.158v.287h10.917v-.287c-1.478-.003-2.366-.076-2.663-.218zM39.628 14.6l2.708 7.31h-5.411" fill="url(#paint12_linear)"/><path d="M56.972 38.942a.233.233 0 01.115-.182.244.244 0 01.327.079l.006.01.015.024.02.03.042.06c.029.04.063.084.094.12a3.563 3.563 0 00.442.438l.124.098c.042.032.084.062.128.093s.085.06.133.084c.048.025.089.06.135.084.094.052.185.107.283.15l.145.07.145.061c.093.043.205.078.311.115l.16.055c.058.019.114.041.168.065.054.024.11.052.169.08.058.026.106.06.157.095.102.069.196.15.28.24.082.09.152.19.206.3.103.212.151.446.141.68a1.792 1.792 0 01-.15.655c.021-.108.033-.217.036-.326a1.78 1.78 0 00-.015-.322 1.322 1.322 0 00-.212-.58 1.179 1.179 0 00-.202-.221 1.316 1.316 0 00-.253-.169 1.918 1.918 0 00-.435-.161l-.169-.042c-.11-.03-.216-.055-.332-.097l-.169-.057-.163-.068c-.112-.043-.216-.099-.322-.15-.053-.027-.103-.058-.156-.085a1.417 1.417 0 01-.151-.093c-.05-.033-.1-.064-.148-.098l-.143-.107a3.898 3.898 0 01-.27-.232l-.017-.017v.023a5.6 5.6 0 00.191 1.148c.016.052.03.105.049.158.034.104.074.207.117.308l.07.148.076.145c.055.095.115.186.18.274.016.022.031.045.048.066l.054.062c.035.043.072.083.111.121.04.038.075.08.12.115l.127.106.138.094.034.024.037.02.075.04.073.042.077.035c.053.022.104.049.158.067l.163.056.042.013.043.011.084.021c.114.03.23.052.346.068h.022l-.045-.024c-.122-.072-.24-.154-.36-.234a2.6 2.6 0 01-.333-.272 3.67 3.67 0 01-.292-.293c-.043-.052-.09-.099-.128-.15a4.24 4.24 0 01-.213-.3c-.03-.048-.061-.095-.084-.143a2.606 2.606 0 01-.204-.47 1.463 1.463 0 01-.043-.19l.033.04c.02.026.054.06.094.105.04.046.09.1.148.16.06.06.123.126.195.197.035.036.074.072.113.109.039.037.078.078.122.115.045.037.085.078.13.118l.14.12c.047.041.093.084.144.122.051.038.101.08.152.121.05.042.104.078.156.12l.157.12.326.225c.112.07.218.143.323.212.106.068.213.128.311.19.048.034.1.058.147.085l.138.084c.084.054.169.106.244.144.075.04.138.08.19.111.052.032.092.059.12.077-.021-.047-.052-.11-.084-.19-.032-.08-.084-.203-.135-.336a7.35 7.35 0 01-.15-.444c-.027-.084-.048-.168-.073-.258a4.274 4.274 0 01-.068-.28l-.06-.297c-.021-.101-.034-.206-.05-.313l-.023-.19a4.99 4.99 0 01-.597-.864 4.117 4.117 0 01-.243-.538 4.03 4.03 0 01-.158-.572 3.65 3.65 0 01-.039-1.19c.055-.398.167-.786.33-1.153a5.52 5.52 0 01.605-1.037c.237-.323.5-.627.784-.91a9.987 9.987 0 011.904-1.471.248.248 0 01.295.04.229.229 0 01.043.255l-.005.01-.024.05-.025.059a2.572 2.572 0 00-.047.118c-.032.08-.056.164-.084.247a5.577 5.577 0 00-.204 1.029l-.022.262c-.005.084-.006.176-.008.264-.003.089 0 .176 0 .264 0 .089 0 .176.01.265.019.175.028.352.061.527l.043.263.057.252c.03.168.084.347.139.522l.076.263c.013.046.028.092.04.138l.031.14c.023.092.033.189.047.283.008.048.008.096.012.144a2.46 2.46 0 01-.056.72c-.044.189-.115.37-.211.54a2.404 2.404 0 01-.787.826 3.377 3.377 0 01-.5.27 2.952 2.952 0 01-.538.177 3.39 3.39 0 00.96-.547c.14-.113.268-.24.382-.378a2.03 2.03 0 00.43-.938c.026-.17.033-.342.02-.514 0-.042-.01-.084-.015-.128-.005-.045-.008-.084-.019-.128-.019-.084-.03-.169-.057-.253l-.034-.125c-.012-.042-.028-.084-.043-.124l-.09-.26c-.06-.174-.125-.342-.17-.53l-.073-.276-.053-.276c-.04-.184-.057-.37-.085-.557-.012-.094-.013-.188-.02-.282a3.133 3.133 0 01-.01-.283v-.282l.017-.283a6.055 6.055 0 01.172-.994 9.934 9.934 0 00-1.24 1.012 7.576 7.576 0 00-.765.842 6.191 6.191 0 00-.325.459 4.545 4.545 0 00-.495.998 3.645 3.645 0 00-.076 2.194 4.706 4.706 0 00.438 1.053c.045.084.096.169.145.253l.073.114a7.156 7.156 0 01-.044-.776c-.002-.114.004-.23.007-.345.002-.116.013-.23.023-.345a5.14 5.14 0 01.04-.337l.025-.168c.008-.056.02-.111.031-.168a6.45 6.45 0 01.245-.921 5.413 5.413 0 01.428-.94c.07-.123.14-.224.198-.307.057-.084.11-.145.143-.187a.608.608 0 01.056-.063l-.032.076-.085.215c-.037.092-.071.207-.113.336a12.138 12.138 0 00-.25.96c-.04.185-.074.382-.108.59a8.774 8.774 0 00-.078.63c-.02.215-.037.433-.047.651 0 .11-.008.22-.01.33v.327c0 .108 0 .215.007.32.007.107.009.212.014.316.005.103.014.204.018.304.004.1.017.197.025.292.007.095.02.187.027.277.008.09.017.177.03.259.02.168.036.32.057.455.021.135.03.252.047.353.017.1.023.161.03.213l.056-.108c.023-.045.067-.119.11-.192.05-.083.105-.162.164-.238.065-.084.133-.177.215-.267.083-.09.173-.18.268-.275.048-.046.102-.088.154-.134l.026-.02a2.79 2.79 0 01.36-.766c.033-.052.074-.098.11-.147l.058-.072.064-.067.066-.066.033-.033.035-.03.144-.12.157-.106c.052-.037.109-.063.164-.096.054-.031.11-.06.168-.084l.084-.038c.03-.012.06-.021.09-.032a2.93 2.93 0 01.366-.104l.188-.034.187-.024c.126-.01.253-.018.378-.017h.188a4.955 4.955 0 01.924.124c.12.027.242.056.36.09.117.036.236.073.353.113.116.04.229.084.352.138a.237.237 0 01.134.168.23.23 0 01-.191.268h-.012l-.029.005-.035.008a.862.862 0 00-.075.017c-.048.012-.098.028-.148.043a3.879 3.879 0 00-.294.11 4.4 4.4 0 00-.285.135l-.139.078-.135.084c-.045.029-.084.058-.13.09a1.52 1.52 0 00-.13.093c-.084.066-.168.128-.245.202l-.12.106-.109.111c-.075.07-.146.158-.22.242l-.1.131a1.988 1.988 0 01-.406.362 1.674 1.674 0 01-.33.168 1.376 1.376 0 01-.363.084 1.533 1.533 0 01-.706-.113 1.98 1.98 0 01-.309-.16 1.77 1.77 0 01-.269-.208 2.17 2.17 0 00.617.249c.208.051.424.056.633.013a1.23 1.23 0 00.542-.27 1.86 1.86 0 00.31-.337l.1-.135c.066-.088.129-.176.21-.267l.117-.135.123-.124c.08-.084.168-.16.259-.24.043-.038.092-.072.139-.109a2.15 2.15 0 01.142-.105c.049-.033.098-.067.148-.099l.153-.092c.104-.058.21-.113.32-.162l.022-.01-.022-.006a6.09 6.09 0 00-1.173-.233c-.056-.004-.113-.01-.168-.012a3.009 3.009 0 00-.338 0l-.168.01-.169.019c-.11.015-.22.037-.328.065l-.084.021-.078.026a1.473 1.473 0 00-.157.058c-.05.023-.104.04-.152.067l-.144.076-.139.092-.035.023-.033.027-.064.052-.068.052-.06.058c-.04.04-.085.077-.122.119l-.11.13-.029.031-.024.036-.052.069a2.806 2.806 0 00-.198.309l.04-.033c.112-.084.234-.164.353-.244a2.8 2.8 0 01.38-.206c.125-.06.255-.114.386-.16.065-.022.127-.047.19-.063.065-.017.126-.035.186-.05s.12-.026.179-.037c.058-.011.113-.022.168-.027a2.859 2.859 0 01.526-.019 1.362 1.362 0 01.197.03l-.049.015c-.031.01-.077.029-.135.048-.058.02-.127.046-.206.078l-.26.106c-.047.02-.095.043-.144.065-.05.022-.102.043-.155.07-.052.027-.105.05-.16.076l-.168.084c-.056.03-.114.055-.169.084-.055.029-.112.063-.168.093-.057.03-.112.068-.169.1l-.169.101-.337.215c-.105.076-.214.147-.317.219-.104.071-.2.147-.294.214-.05.031-.092.07-.135.103l-.127.096c-.084.061-.162.115-.226.168-.064.053-.125.097-.175.134l-.125.084a.713.713 0 01.006.056l-.022-.046-.02.013s0-.01.013-.027a.12.12 0 010-.009 5.371 5.371 0 01-.394-.048 2.211 2.211 0 01-.286-.064c-.103-.03-.218-.057-.337-.099-.12-.042-.236-.093-.36-.145-.062-.028-.123-.062-.184-.093L60 42.834a2.963 2.963 0 01-.867-.055c-.061-.011-.12-.032-.18-.048l-.09-.026-.084-.035-.084-.036-.043-.018-.042-.022-.169-.088-.157-.104c-.053-.034-.1-.077-.15-.115a1.328 1.328 0 01-.14-.126l-.068-.066c-.022-.022-.041-.047-.062-.07a2.755 2.755 0 01-.23-.295l-.1-.158-.089-.162a3.77 3.77 0 01-.214-.505 4.534 4.534 0 01-.145-.527 5.823 5.823 0 01-.102-.714 8.602 8.602 0 01-.017-.36 3.637 3.637 0 01.005-.362z" fill="url(#paint13_linear)"/></g><defs><linearGradient id="paint0_linear" x1="52.589" y1="37.553" x2="52.589" y2="57.731" gradientUnits="userSpaceOnUse"><stop stop-color="#A3854A"/><stop offset=".259" stop-color="#FAF3B9"/><stop offset=".78" stop-color="#A4854A"/><stop offset="1" stop-color="#F9F1B8"/></linearGradient><linearGradient id="paint1_linear" x1="20.074" y1="16.913" x2="20.074" y2="53.188" gradientUnits="userSpaceOnUse"><stop stop-color="#A3854A"/><stop offset=".259" stop-color="#FAF3B9"/><stop offset=".78" stop-color="#A4854A"/><stop offset="1" stop-color="#F9F1B8"/></linearGradient><linearGradient id="paint2_linear" x1="14.112" y1="7.232" x2="14.112" y2="13.964" gradientUnits="userSpaceOnUse"><stop stop-color="#A3854A"/><stop offset=".259" stop-color="#FAF3B9"/><stop offset=".78" stop-color="#A4854A"/><stop offset="1" stop-color="#F9F1B8"/></linearGradient><linearGradient id="paint3_linear" x1="19.873" y1="5.371" x2="19.873" y2="12.147" gradientUnits="userSpaceOnUse"><stop stop-color="#A3854A"/><stop offset=".259" stop-color="#FAF3B9"/><stop offset=".78" stop-color="#A4854A"/><stop offset="1" stop-color="#F9F1B8"/></linearGradient><linearGradient id="paint4_linear" x1="14.242" y1="7.194" x2="14.242" y2="13.926" gradientUnits="userSpaceOnUse"><stop stop-color="#A3854A"/><stop offset=".259" stop-color="#FAF3B9"/><stop offset=".78" stop-color="#A4854A"/><stop offset="1" stop-color="#F9F1B8"/></linearGradient><linearGradient id="paint5_linear" x1="29.204" y1=".001" x2="29.204" y2="65" gradientUnits="userSpaceOnUse"><stop stop-color="#A3854A"/><stop offset=".259" stop-color="#FAF3B9"/><stop offset=".78" stop-color="#A4854A"/><stop offset="1" stop-color="#F9F1B8"/></linearGradient><linearGradient id="paint6_linear" x1="14.242" y1="7.194" x2="14.242" y2="13.926" gradientUnits="userSpaceOnUse"><stop stop-color="#A3854A"/><stop offset=".259" stop-color="#FAF3B9"/><stop offset=".78" stop-color="#A4854A"/><stop offset="1" stop-color="#F9F1B8"/></linearGradient><linearGradient id="paint7_linear" x1="62.623" y1="44.536" x2="62.623" y2="57.731" gradientUnits="userSpaceOnUse"><stop stop-color="#A3854A"/><stop offset=".259" stop-color="#FAF3B9"/><stop offset=".78" stop-color="#A4854A"/><stop offset="1" stop-color="#F9F1B8"/></linearGradient><linearGradient id="paint8_linear" x1="38.715" y1="37.506" x2="38.715" y2="57.968" gradientUnits="userSpaceOnUse"><stop stop-color="#A3854A"/><stop offset=".259" stop-color="#FAF3B9"/><stop offset=".78" stop-color="#A4854A"/><stop offset="1" stop-color="#F9F1B8"/></linearGradient><linearGradient id="paint9_linear" x1="81.268" y1="10.174" x2="81.268" y2="28.689" gradientUnits="userSpaceOnUse"><stop stop-color="#A3854A"/><stop offset=".259" stop-color="#FAF3B9"/><stop offset=".78" stop-color="#A4854A"/><stop offset="1" stop-color="#F9F1B8"/></linearGradient><linearGradient id="paint10_linear" x1="61.202" y1="10.174" x2="61.202" y2="28.689" gradientUnits="userSpaceOnUse"><stop stop-color="#A3854A"/><stop offset=".259" stop-color="#FAF3B9"/><stop offset=".78" stop-color="#A4854A"/><stop offset="1" stop-color="#F9F1B8"/></linearGradient><linearGradient id="paint11_linear" x1="80.086" y1="44.505" x2="80.086" y2="57.731" gradientUnits="userSpaceOnUse"><stop stop-color="#A3854A"/><stop offset=".259" stop-color="#FAF3B9"/><stop offset=".78" stop-color="#A4854A"/><stop offset="1" stop-color="#F9F1B8"/></linearGradient><linearGradient id="paint12_linear" x1="41.315" y1="9.94" x2="41.315" y2="28.689" gradientUnits="userSpaceOnUse"><stop stop-color="#A3854A"/><stop offset=".259" stop-color="#FAF3B9"/><stop offset=".78" stop-color="#A4854A"/><stop offset="1" stop-color="#F9F1B8"/></linearGradient><linearGradient id="paint13_linear" x1="62.262" y1="33.21" x2="62.262" y2="43.369" gradientUnits="userSpaceOnUse"><stop stop-color="#A3854A"/><stop offset=".259" stop-color="#FAF3B9"/><stop offset=".78" stop-color="#A4854A"/><stop offset="1" stop-color="#F9F1B8"/></linearGradient><clipPath id="clip0"><path fill="#fff" d="M0 0h92v65H0z"/></clipPath></defs></svg>