<svg width="24" height="24" viewBox="0 0 24 24" fill="none" xmlns="http://www.w3.org/2000/svg">
<path fill-rule="evenodd" clip-rule="evenodd" d="M12.4 3.04506C10.6879 3.04506 9.3 4.43297 9.3 6.14505V8.14352H15.5V6.14506C15.5 4.43297 14.1121 3.04506 12.4 3.04506ZM17.3 8.14352V6.14506C17.3 3.43886 15.1062 1.24506 12.4 1.24506C9.69381 1.24506 7.5 3.43886 7.5 6.14505V8.14352H5.9C4.85066 8.14352 4 8.99418 4 10.0435V20.855C4 21.9043 4.85066 22.755 5.9 22.755H18.9C19.9493 22.755 20.8 21.9043 20.8 20.855V10.0435C20.8 8.99418 19.9493 8.14352 18.9 8.14352H17.3ZM5.9 9.94352C5.84477 9.94352 5.8 9.98829 5.8 10.0435V20.855C5.8 20.9102 5.84477 20.955 5.9 20.955H18.9C18.9552 20.955 19 20.9102 19 20.855V10.0435C19 9.98829 18.9552 9.94352 18.9 9.94352H16.4H8.4H5.9ZM9.4 12.0144C9.4 12.5667 8.95229 13.0144 8.4 13.0144C7.84772 13.0144 7.4 12.5667 7.4 12.0144C7.4 11.4622 7.84772 11.0144 8.4 11.0144C8.95229 11.0144 9.4 11.4622 9.4 12.0144ZM16.4 13.0144C16.9523 13.0144 17.4 12.5667 17.4 12.0144C17.4 11.4622 16.9523 11.0144 16.4 11.0144C15.8477 11.0144 15.4 11.4622 15.4 12.0144C15.4 12.5667 15.8477 13.0144 16.4 13.0144Z" fill="#282A33"/>
</svg>
