<svg width="7" height="12" viewBox="0 0 7 12" fill="none" xmlns="http://www.w3.org/2000/svg">
<path fill-rule="evenodd" clip-rule="evenodd" d="M0.220345 0.968997C0.150501 1.03867 0.0950861 1.12143 0.0572767 1.21255C0.0194669 1.30366 5.72205e-06 1.40135 5.72205e-06 1.5C5.72205e-06 1.59865 0.0194669 1.69633 0.0572767 1.78745C0.0950861 1.87857 0.150501 1.96133 0.220345 2.031L4.19085 6L0.220345 9.969C0.150614 10.0387 0.0952992 10.1215 0.0575604 10.2126C0.0198221 10.3037 0.000397682 10.4014 0.000397682 10.5C0.000397682 10.5986 0.0198221 10.6963 0.0575604 10.7874C0.0952992 10.8785 0.150614 10.9613 0.220345 11.031C0.290078 11.1007 0.372861 11.156 0.46397 11.1938C0.555079 11.2315 0.65273 11.2509 0.751346 11.2509C0.849961 11.2509 0.947612 11.2315 1.03872 11.1938C1.12983 11.156 1.21261 11.1007 1.28235 11.031L5.78234 6.531C5.85219 6.46133 5.9076 6.37856 5.94541 6.28745C5.98322 6.19633 6.00269 6.09865 6.00269 6C6.00269 5.90135 5.98322 5.80366 5.94541 5.71255C5.9076 5.62143 5.85219 5.53866 5.78234 5.469L1.28235 0.968997C1.21268 0.899153 1.12991 0.843738 1.0388 0.805928C0.947679 0.768119 0.849997 0.748657 0.751346 0.748657C0.652695 0.748657 0.555013 0.768119 0.463895 0.805928C0.372777 0.843738 0.290014 0.899153 0.220345 0.968997Z" fill="white"/>
</svg>
