<svg width="55" height="55" viewBox="0 0 55 55" fill="none" xmlns="http://www.w3.org/2000/svg">
<g clip-path="url(#clip0)">
<path d="M0.630768 37.5361L1.61221 37.863C6.31648 39.428 10.7057 41.8154 14.5756 44.9144L22.3428 51.1285C22.3954 51.1649 22.452 51.1959 22.5115 51.22L22.5061 51.2319L25.6652 52.8127V54.9958H27.498V41.7069L30.7973 39.2323L30.7876 39.2196C30.8251 39.198 30.8611 39.1739 30.8957 39.1472C36.6993 33.3624 44.2578 29.6658 52.3871 28.6357L54.1896 28.4105C54.6921 28.3474 55.0482 27.8893 54.9851 27.3869C54.9418 27.0419 54.7068 26.7511 54.3785 26.6361L46.7544 23.9682C40.5439 21.7945 33.747 25.0672 31.5733 31.278C31.5329 31.393 31.4944 31.5091 31.4576 31.6255L29.4623 37.943L27.4983 39.4157V26.2227C27.4962 24.4645 28.3756 22.8221 29.84 21.8486L29.8299 21.8338C29.8829 21.8057 29.933 21.7722 29.9791 21.7339C33.6605 18.0515 35.5838 12.9655 35.2601 7.76854L34.8301 0.86639C34.8031 0.432077 34.4747 0.077058 34.044 0.0157856C33.614 -0.0415221 33.2021 0.207892 33.0532 0.615173L30.0891 8.91145C28.9804 12.01 28.4138 15.2769 28.4149 18.5683V20.6332C26.682 21.9704 25.6666 24.0349 25.6652 26.2238V28.0392L24.7331 27.1072C24.5771 20.2922 20.1575 14.3095 13.6897 12.1567L7.62555 10.1405C7.1451 9.97975 6.62609 10.2389 6.4657 10.719C6.41271 10.8768 6.40406 11.0462 6.44047 11.2088L7.44858 15.7567C9.06328 23.1764 15.6483 28.4552 23.2413 28.4177H23.4529L25.6656 30.63V50.7633L23.8324 49.8468V47.9618C23.8321 40.0403 17.4104 33.619 9.48895 33.6193C7.94741 33.6193 6.4156 33.868 4.95299 34.3557L0.630768 35.7963C0.1496 35.9545 -0.112069 36.4725 0.0461576 36.9533C0.136985 37.2297 0.353961 37.4467 0.630768 37.5379V37.5361ZM33.2053 32.1755C34.532 27.9866 38.4142 25.1356 42.8081 25.123C43.9463 25.1248 45.0759 25.3184 46.1496 25.6957L50.1976 27.1129C43.5546 28.3049 37.3351 31.2023 32.1485 35.5217L33.2053 32.1755ZM30.2477 18.5683C30.2466 15.4874 30.776 12.4292 31.813 9.52814L33.2796 5.42974L33.4324 7.88315C33.671 11.7271 32.5428 15.5317 30.2477 18.6242V18.5683ZM9.24097 15.3541L8.58103 12.3856L13.1094 13.8951C18.1262 15.5649 21.8137 19.8641 22.7003 25.0762L15.3156 17.6914L14.0195 18.9871L21.5138 26.4815C15.4644 25.7776 10.532 21.3058 9.24097 15.3541ZM5.53472 36.0944C12.0883 33.9091 19.1721 37.4503 21.357 44.0036C21.7827 45.2798 21.9997 46.6166 21.9993 47.9618V48.5064L15.7214 43.4849C12.1211 40.6008 8.08653 38.3052 3.76791 36.6837L5.53472 36.0944Z" fill="#B69C60"/>
</g>
<defs>
<clipPath id="clip0">
<rect width="55" height="55" fill="white"/>
</clipPath>
</defs>
</svg>
