<svg width="55" height="55" viewBox="0 0 55 55" fill="none" xmlns="http://www.w3.org/2000/svg">
<g clip-path="url(#clip0)">
<path d="M51.3332 11.5567C50.731 8.88659 48.6089 6.80669 45.9272 6.25865C45.4549 6.15917 44.994 6.46631 44.8976 6.93916C44.8012 7.41151 45.1058 7.87234 45.5781 7.96875C47.588 8.38023 49.1789 9.93945 49.6303 11.9413C49.7218 12.3469 50.0819 12.6221 50.4808 12.6221C50.5445 12.6221 50.6092 12.6152 50.6737 12.6006C51.1437 12.494 51.4393 12.027 51.3332 11.5567Z" fill="#B69C60"/>
<path d="M47.1307 2.36222C47.1256 2.04281 46.9453 1.75203 46.6625 1.60371C46.3796 1.45564 46.0374 1.47405 45.7725 1.65179C43.9938 2.84249 41.6899 3.49845 39.2842 3.49845C36.0144 3.49845 32.9949 2.29522 31.2081 0.280022C30.8772 -0.0930964 30.233 -0.0930964 29.9023 0.280022C28.1155 2.29522 25.096 3.49845 21.8262 3.49845C19.7621 3.49845 17.7937 3.02534 16.1335 2.13027C15.8642 1.98578 15.5387 1.9914 15.2758 2.14689C15.0126 2.30187 14.8497 2.58369 14.8464 2.88929C14.8441 3.09132 14.8428 3.29489 14.8428 3.49871C14.8428 6.78516 15.7885 8.44028 16.7035 10.0412C17.0815 10.7028 17.4385 11.3275 17.7244 12.0671C17.8577 12.4131 18.1883 12.6259 18.5384 12.6259C18.6433 12.6259 18.7492 12.6067 18.8527 12.5673C19.3028 12.3937 19.5261 11.8881 19.3524 11.4388C19.0195 10.5759 18.6121 9.86396 18.2193 9.17578C17.4613 7.84928 16.7414 6.58927 16.6097 4.27538C18.2119 4.91267 19.9892 5.24513 21.8257 5.24513C25.2226 5.24513 28.4121 4.08511 30.5547 2.10521C32.6972 4.08485 35.8868 5.24513 39.2837 5.24513C41.4616 5.24513 43.578 4.7669 45.3889 3.88129C45.3203 6.45066 44.5631 7.77614 43.7632 9.17603C43.3709 9.86268 42.9653 10.5726 42.6323 11.4329C42.4587 11.8825 42.6822 12.3883 43.1315 12.562C43.5806 12.7361 44.0869 12.5126 44.2606 12.0628C44.546 11.3247 44.9022 10.702 45.2792 10.042C46.1939 8.44156 47.1399 6.78593 47.1399 3.49948C47.1397 3.11715 47.1371 2.73841 47.1307 2.36222Z" fill="#B69C60"/>
<path d="M46.4589 22.0311C46.1753 21.6081 45.9006 21.1992 45.6405 20.7985C45.3779 20.3939 44.8365 20.2791 44.433 20.5414C44.0284 20.8041 43.913 21.3445 44.1759 21.749C44.4404 22.1572 44.7201 22.5735 45.0086 23.0039C47.5138 26.7387 50.632 31.3869 50.632 40.161C50.632 44.8961 49.4165 49.4119 47.1133 53.2546H34.0468V51.5087C34.0468 51.0269 33.6557 50.6359 33.1739 50.6359H29.6824C29.2006 50.6359 28.8096 51.0269 28.8096 51.5087V53.2546H15.7425C13.4394 49.4119 12.2238 44.8961 12.2238 40.161C12.2238 31.3642 15.0339 26.7095 17.292 22.9689L17.7078 22.2776C17.9554 21.8638 17.8204 21.3278 17.4066 21.0805C16.9936 20.833 16.4568 20.9675 16.2095 21.3818L15.7975 22.0666C13.5524 25.7853 10.4779 30.8783 10.4779 40.1607C10.4779 45.3933 11.8737 50.383 14.5147 54.5913C14.6746 54.8458 14.9538 55.0003 15.2541 55.0003H29.6819C30.1637 55.0003 30.5547 54.6092 30.5547 54.1274V52.3815H32.3006V54.1274C32.3006 54.6092 32.6916 55.0003 33.1734 55.0003H47.6013C47.9015 55.0003 48.1808 54.8458 48.3411 54.5913C50.9821 50.3835 52.3779 45.3936 52.3779 40.1607C52.3781 30.8552 48.9567 25.7549 46.4589 22.0311Z" fill="#B69C60"/>
<path d="M51.5909 32.894C51.342 31.8286 51.0293 30.7772 50.659 29.7686C50.493 29.3178 49.9933 29.0855 49.5416 29.2492C44.0305 31.2478 37.465 32.304 30.5546 32.304C24.2571 32.304 18.1731 31.4127 12.9615 29.7267C12.7398 29.6551 12.4976 29.6755 12.2907 29.7829C12.0838 29.8909 11.9281 30.0768 11.859 30.3C11.5979 31.146 11.3724 32.0178 11.1887 32.8917C11.0923 33.3494 11.3742 33.8021 11.8273 33.9177C16.7326 35.1672 22.202 40.1392 26.1017 46.8934C27.0318 48.5043 27.842 50.1661 28.5087 51.8325C28.6409 52.1636 28.9621 52.381 29.3189 52.381H33.5472C33.9042 52.381 34.2249 52.1636 34.3576 51.8319C35.0253 50.1656 35.835 48.5036 36.7651 46.8929C40.6382 40.1842 46.0787 35.2196 50.9625 33.9363C51.4193 33.8161 51.6978 33.3545 51.5909 32.894ZM35.2527 46.0209C34.3837 47.5272 33.6137 49.0769 32.9618 50.6356H29.9053C29.2531 49.0772 28.4834 47.5272 27.6139 46.0209C23.6968 39.2362 18.1956 34.1284 13.0756 32.4633C13.141 32.1932 13.2101 31.924 13.283 31.6567C18.4693 33.2241 24.4187 34.0501 30.5553 34.0501C37.3221 34.0501 43.7817 33.0612 49.3023 31.1839C49.4437 31.615 49.5739 32.0534 49.692 32.4958C44.6011 34.1954 39.1394 39.2894 35.2527 46.0209Z" fill="#B69C60"/>
<path d="M50.632 11.3544H3.4948C3.013 11.3544 2.62198 11.7455 2.62198 12.2273V21.8294C2.62198 22.3112 3.013 22.7022 3.4948 22.7022H41.8321C47.166 22.7022 51.5048 18.3626 51.5048 13.029V12.2273C51.5048 11.7457 51.1138 11.3544 50.632 11.3544ZM41.8321 20.9565H4.36763V13.1003H49.7584C49.72 17.4386 46.1791 20.9565 41.8321 20.9565Z" fill="#B69C60"/>
<path d="M8.73232 12.2275C8.25052 12.2275 7.8595 12.6185 7.8595 13.1003V16.5919C7.8595 17.0737 8.25052 17.4647 8.73232 17.4647C9.21413 17.4647 9.60515 17.0737 9.60515 16.5919V13.1003C9.60515 12.6185 9.21413 12.2275 8.73232 12.2275Z" fill="#B69C60"/>
<path d="M13.0968 12.2275C12.615 12.2275 12.224 12.6185 12.224 13.1003V18.3378C12.224 18.8196 12.615 19.2106 13.0968 19.2106C13.5786 19.2106 13.9696 18.8196 13.9696 18.3378V13.1003C13.9696 12.6185 13.5786 12.2275 13.0968 12.2275Z" fill="#B69C60"/>
<path d="M17.4614 12.2275C16.9796 12.2275 16.5886 12.6185 16.5886 13.1003V16.5919C16.5886 17.0737 16.9796 17.4647 17.4614 17.4647C17.9432 17.4647 18.3342 17.0737 18.3342 16.5919V13.1003C18.3342 12.6185 17.9432 12.2275 17.4614 12.2275Z" fill="#B69C60"/>
<path d="M21.826 12.2275C21.3442 12.2275 20.9532 12.6185 20.9532 13.1003V18.3378C20.9532 18.8196 21.3442 19.2106 21.826 19.2106C22.3078 19.2106 22.6988 18.8196 22.6988 18.3378V13.1003C22.6988 12.6185 22.3078 12.2275 21.826 12.2275Z" fill="#B69C60"/>
<path d="M26.1904 12.2275C25.7086 12.2275 25.3176 12.6185 25.3176 13.1003V16.5919C25.3176 17.0737 25.7086 17.4647 26.1904 17.4647C26.6722 17.4647 27.0632 17.0737 27.0632 16.5919V13.1003C27.0635 12.6185 26.6722 12.2275 26.1904 12.2275Z" fill="#B69C60"/>
<path d="M30.555 12.2275C30.0732 12.2275 29.6822 12.6185 29.6822 13.1003V18.3378C29.6822 18.8196 30.0732 19.2106 30.555 19.2106C31.0368 19.2106 31.4278 18.8196 31.4278 18.3378V13.1003C31.4278 12.6185 31.0368 12.2275 30.555 12.2275Z" fill="#B69C60"/>
<path d="M34.9196 12.2275C34.4378 12.2275 34.0468 12.6185 34.0468 13.1003V16.5919C34.0468 17.0737 34.4378 17.4647 34.9196 17.4647C35.4014 17.4647 35.7924 17.0737 35.7924 16.5919V13.1003C35.7924 12.6185 35.4014 12.2275 34.9196 12.2275Z" fill="#B69C60"/>
<path d="M39.2841 12.2275C38.8023 12.2275 38.4113 12.6185 38.4113 13.1003V18.3378C38.4113 18.8196 38.8023 19.2106 39.2841 19.2106C39.7659 19.2106 40.1569 18.8196 40.1569 18.3378V13.1003C40.1572 12.6185 39.7659 12.2275 39.2841 12.2275Z" fill="#B69C60"/>
<path d="M43.6487 12.2275C43.1669 12.2275 42.7758 12.6185 42.7758 13.1003V16.5919C42.7758 17.0737 43.1669 17.4647 43.6487 17.4647C44.1305 17.4647 44.5215 17.0737 44.5215 16.5919V13.1003C44.5215 12.6185 44.1305 12.2275 43.6487 12.2275Z" fill="#B69C60"/>
</g>
<defs>
<clipPath id="clip0">
<rect width="55" height="55" fill="white"/>
</clipPath>
</defs>
</svg>
