<svg width="55" height="55" viewBox="0 0 55 55" fill="none" xmlns="http://www.w3.org/2000/svg">
<g clip-path="url(#clip0)">
<path d="M50.6062 46.9142H34.2388C36.5548 45.9526 38.6647 44.5921 40.4825 42.9184H43.6284C49.8988 42.9184 55 37.8172 55 31.5468C55 28.2101 52.2854 25.4956 48.9489 25.4956H47.3375V22.501C47.3375 21.3751 46.4215 20.4591 45.2956 20.4591H6.97243C5.84654 20.4591 4.93056 21.3751 4.93056 22.501V26.0748C4.93056 26.5197 5.29128 26.8805 5.73622 26.8805C6.18116 26.8805 6.54188 26.5197 6.54188 26.0748V22.501C6.54188 22.2636 6.73503 22.0704 6.97243 22.0704H16.5529V25.7567C16.3335 25.855 16.1312 25.9924 15.9569 26.1684L12.9325 29.2213C12.5642 29.5932 12.3612 30.0864 12.3612 30.6098V37.3455C12.3612 38.4334 13.2463 39.3184 14.3342 39.3184H20.3829C21.4707 39.3184 22.3559 38.4334 22.3559 37.3455V30.6098C22.3559 30.0863 22.153 29.5932 21.7845 29.2213L18.7603 26.1685C18.5859 25.9924 18.3835 25.855 18.1643 25.7567V22.0704H45.2957C45.5331 22.0704 45.7263 22.2636 45.7263 22.501V27.3192V27.3259C45.7243 38.0989 36.9612 46.9142 26.1341 46.9142C16.2481 46.9142 7.88831 39.5265 6.68852 29.7296C6.63448 29.288 6.23272 28.9733 5.7909 29.0278C5.34929 29.0819 5.03508 29.4838 5.08911 29.9254C6.04065 37.6951 11.1525 44.0642 18.0258 46.9142H1.66182C0.745508 46.9142 0 47.6597 0 48.576C0 50.9087 1.89771 52.8064 4.23038 52.8064H38.8202C39.2652 52.8064 39.6259 52.4457 39.6259 52.0007C39.6259 51.5558 39.2652 51.1951 38.8202 51.1951H4.23038C2.7862 51.1951 1.61133 50.0202 1.61133 48.576C1.61133 48.5482 1.63399 48.5255 1.66182 48.5255H50.6062C50.6341 48.5255 50.6567 48.5482 50.6567 48.576C50.6567 50.0202 49.4818 51.1951 48.0377 51.1951H42.5799C42.1349 51.1951 41.7742 51.5558 41.7742 52.0007C41.7742 52.4457 42.1349 52.8064 42.5799 52.8064H48.0377C50.3703 52.8064 52.268 50.9087 52.268 48.576C52.268 47.6596 51.5225 46.9142 50.6062 46.9142ZM20.6397 30.3552C20.7073 30.4234 20.7445 30.5138 20.7445 30.6098V37.3455C20.7445 37.5449 20.5822 37.7071 20.3828 37.7071H14.3341C14.1347 37.7071 13.9725 37.5449 13.9725 37.3455V30.6098C13.9725 30.5138 14.0096 30.4234 14.0772 30.3552L16.5527 27.8563V30.148C16.5527 30.593 16.9135 30.9537 17.3584 30.9537C17.8034 30.9537 18.1641 30.593 18.1641 30.148V27.8563L20.6397 30.3552ZM47.1722 29.9721H48.9489C49.8172 29.9721 50.5235 30.6785 50.5235 31.5467C50.5235 35.1574 47.7331 38.1267 44.1959 38.4165C45.7474 35.9 46.7883 33.0369 47.1722 29.9721ZM47.3381 27.1069H48.9489C51.3971 27.1069 53.3887 29.0986 53.3887 31.5468C53.3887 36.9286 49.0103 41.3071 43.6284 41.3071H42.0707C42.4262 40.9021 42.7664 40.4836 43.09 40.0533H43.6284C48.3189 40.0533 52.135 36.2373 52.135 31.5468C52.135 29.79 50.7057 28.3608 48.949 28.3608H47.312C47.3321 27.9445 47.3376 27.5238 47.3381 27.1069Z" fill="#B69C60"/>
<path d="M25.073 18.3234C25.5126 18.3234 25.8689 17.9671 25.8689 17.5275C25.8689 15.555 27.9912 15.4233 27.9912 12.6819C27.9912 9.9378 25.8689 9.81255 25.8689 7.83566C25.8689 5.86512 27.9912 5.72923 27.9912 2.98943C27.9912 2.54986 27.6349 2.19354 27.1953 2.19354C26.7557 2.19354 26.3994 2.54986 26.3994 2.98943C26.3994 4.96202 24.2771 5.09404 24.2771 7.83566C24.2771 10.5801 26.3994 10.7048 26.3994 12.6819C26.3994 14.6543 24.2771 14.7862 24.2771 17.5275C24.2771 17.9671 24.6334 18.3234 25.073 18.3234Z" fill="#B69C60"/>
<path d="M31.089 18.3234C31.5286 18.3234 31.8849 17.9671 31.8849 17.5275C31.8849 15.555 34.0073 15.4233 34.0073 12.6819C34.0073 9.9378 31.8849 9.81255 31.8849 7.83566C31.8849 5.86512 34.0073 5.72923 34.0073 2.98943C34.0073 2.54986 33.6509 2.19354 33.2114 2.19354C32.7718 2.19354 32.4155 2.54986 32.4155 2.98943C32.4155 4.96202 30.2932 5.09404 30.2932 7.83566C30.2932 10.5801 32.4155 10.7048 32.4155 12.6819C32.4155 14.6543 30.2932 14.7862 30.2932 17.5275C30.2932 17.9671 30.6495 18.3234 31.089 18.3234Z" fill="#B69C60"/>
<path d="M19.0568 18.3234C19.4964 18.3234 19.8527 17.9671 19.8527 17.5275C19.8527 15.555 21.975 15.4233 21.975 12.6819C21.975 9.9378 19.8527 9.81255 19.8527 7.83566C19.8527 5.86512 21.975 5.72923 21.975 2.98943C21.975 2.54986 21.6187 2.19354 21.1791 2.19354C20.7396 2.19354 20.3833 2.54986 20.3833 2.98943C20.3833 4.96202 18.2609 5.09404 18.2609 7.83566C18.2609 10.5801 20.3833 10.7048 20.3833 12.6819C20.3833 14.6543 18.2609 14.7862 18.2609 17.5275C18.2609 17.9671 18.6172 18.3234 19.0568 18.3234Z" fill="#B69C60"/>
</g>
<defs>
<clipPath id="clip0">
<rect width="55" height="55" fill="white"/>
</clipPath>
</defs>
</svg>
