<svg width="92" height="65" viewBox="0 0 92 65" fill="none" xmlns="http://www.w3.org/2000/svg">
<g clip-path="url(#clip0)">
<path fill-rule="evenodd" clip-rule="evenodd" d="M54.0865 56.2479C54.0865 56.6602 54.1185 56.928 54.1825 57.0514C54.2601 57.1371 54.3589 57.201 54.4691 57.2365C54.9152 57.3812 55.8392 57.4532 57.241 57.4527V57.7312H47.9375V57.4527C48.5555 57.4527 49.1132 57.4322 49.6104 57.3913C50.0502 57.3621 50.4847 57.279 50.9041 57.1439C51.0314 57.0404 51.0954 56.7426 51.0954 56.2429V39.6902C51.0954 39.278 51.0314 38.9844 50.9041 38.8195C50.8104 38.681 50.6775 38.5735 50.5223 38.5107C50.1397 38.407 49.2899 38.3554 47.9729 38.3559V38.0783L54.0898 37.5525L54.0865 56.2479Z" fill="url(#paint0_linear)"/>
<path fill-rule="evenodd" clip-rule="evenodd" d="M22.9085 53.1881C23.1074 52.8474 22.4105 52.0204 22.2116 50.9519C21.7143 48.3262 21.0671 44.341 20.7687 43.2708C19.3748 38.1178 17.2358 33.0633 20.2706 28.007C21.5652 25.2366 22.7594 23.6323 21.9132 20.5194C21.7143 19.79 19.6739 16.7268 18.9272 16.922C18.6744 18.5743 23.3561 20.8105 20.3204 25.4772C18.6289 28.1021 16.7883 30.2895 17.2863 34.4211C17.8333 39.3798 20.6204 45.1646 21.9638 51.1437C22.5108 53.3311 22.0632 53.1856 22.9094 53.1856" fill="url(#paint1_linear)"/>
<path fill-rule="evenodd" clip-rule="evenodd" d="M5.48652 9.07772C5.28678 8.12368 3.69476 8.4644 2.6969 8.09002C8.36968 6.35273 19.4161 16.5392 25.04 13.3364C25.935 12.7912 26.4322 11.9735 26.8806 10.9858C27.1789 10.4406 28.224 8.56704 28.224 8.22632C25.7386 8.02188 25.9872 12.5523 22.3051 12.7879C17.8763 13.0302 10.9562 7.95373 4.73981 7.27228C3.34669 7.13599 -0.236827 7.30593 0.0126371 8.32895C0.160967 8.87412 1.75383 8.66968 2.59998 8.73783C3.64504 8.80597 4.53839 9.1467 5.48652 9.07856" fill="url(#paint2_linear)"/>
<path fill-rule="evenodd" clip-rule="evenodd" d="M22.8521 8.27003C22.7029 5.84371 17.8265 4.02397 16.9804 6.68333C16.1839 9.15676 18.8219 12.0029 20.9617 12.1434C22.9001 12.2368 23.5988 10.2765 22.1062 11.0236C21.1109 11.5368 19.5686 11.0236 18.7224 10.0898C17.5299 8.69068 17.277 6.45029 18.5732 5.98336C19.3191 5.65778 20.8125 6.68333 21.3098 7.05687C22.1062 7.57006 21.8567 8.13037 22.8521 8.27003Z" fill="url(#paint3_linear)"/>
<path fill-rule="evenodd" clip-rule="evenodd" d="M5.61546 9.03983C5.41572 8.08579 3.8237 8.42652 2.82837 8.0513C8.50115 6.31401 19.5526 16.5013 25.1714 13.2985C26.0673 12.7533 26.5646 11.9356 27.0121 10.9479C27.3113 10.4027 28.3555 8.52832 28.3555 8.18759C25.8676 7.98315 26.117 12.5144 22.4349 12.7533C18.0061 12.9914 11.0885 7.91585 4.86876 7.23523C3.47563 7.09894 -0.103672 7.26889 0.141579 8.29107C0.290751 8.83623 1.88277 8.62759 2.72893 8.69994C3.77398 8.76809 4.66733 9.10882 5.61546 9.03646" fill="url(#paint4_linear)"/>
<path fill-rule="evenodd" clip-rule="evenodd" d="M34.0485 0.239768C33.1358 0.600688 32.3225 1.3932 32.0174 1.75412C28.0361 6.32324 26.8418 13.6165 26.7921 20.4689C26.7921 24.5072 27.3888 28.4899 27.3399 31.6011C27.1874 42.9797 23.8036 48.8613 23.008 57.271C22.8091 59.312 22.8588 64.8545 24.9464 65C24.9574 64.9788 24.9662 64.9566 24.9725 64.9336C25.0066 64.9395 25.0409 64.9437 25.0754 64.9462C25.3341 64.4818 24.3211 62.8118 24.0151 61.6794C23.9814 61.5413 23.96 61.4006 23.9511 61.2587C23.7522 57.6613 24.9953 52.1197 25.8895 48.7654C26.4929 46.5603 27.0365 44.3443 27.4655 42.0888C28.0959 38.8994 28.5072 35.6334 28.5072 32.1841C28.358 28.1004 27.6644 24.3086 27.6644 20.6633C27.7141 15.7534 28.4111 10.698 30.8493 5.39949C31.516 3.73009 32.6797 2.30504 34.1833 1.31664C34.6814 0.97591 35.3776 0.781568 35.477 0.0546812C35.0067 -0.0689906 34.5103 0.0336486 34.0485 0.239768Z" fill="url(#paint5_linear)"/>
<path fill-rule="evenodd" clip-rule="evenodd" d="M5.61546 9.03983C5.41572 8.08579 3.8237 8.42652 2.82837 8.0513C8.50115 6.31401 19.5526 16.5013 25.1714 13.2985C26.0673 12.7533 26.5646 11.9356 27.0121 10.9479C27.3113 10.4027 28.3555 8.52832 28.3555 8.18759C25.8676 7.98315 26.117 12.5144 22.4349 12.7533C18.0061 12.9914 11.0885 7.91585 4.86876 7.23523C3.47563 7.09894 -0.103672 7.26889 0.141579 8.29107C0.290751 8.83623 1.88277 8.62759 2.72893 8.69994C3.77398 8.76809 4.66733 9.10882 5.61546 9.03646" fill="url(#paint6_linear)"/>
<path fill-rule="evenodd" clip-rule="evenodd" d="M64.1224 44.5361V56.2429C64.1224 56.6551 64.1544 56.9226 64.2185 57.0514C64.296 57.1371 64.3949 57.2009 64.505 57.2365C64.9506 57.3812 65.8745 57.4532 67.2769 57.4527V57.7311H57.9735V57.4527C58.5915 57.4527 59.1491 57.4322 59.6464 57.3912C60.0839 57.3616 60.5161 57.2786 60.9333 57.1439C61.0606 57.0354 61.1246 56.7376 61.1246 56.237V46.5855C61.1246 46.1893 61.0825 45.942 60.9974 45.8393C60.8482 45.6281 60.7108 45.5028 60.5827 45.4633C60.2012 45.3606 59.3303 45.309 57.9701 45.3084V45.0308L64.1224 44.5361Z" fill="url(#paint7_linear)"/>
<path fill-rule="evenodd" clip-rule="evenodd" d="M42.2934 39.2721C43.5295 38.2222 44.2214 37.6352 44.3692 37.5113V44.2476L44.1164 44.1551C43.8186 42.3524 43.0432 40.8398 41.7903 39.6171C40.5373 38.3944 39.1144 37.785 37.5216 37.7889C36.4164 37.7889 35.4612 38.0363 34.6561 38.5309C33.6582 39.1283 33.1593 39.9982 33.1593 41.1525C33.1593 42.2647 33.7004 43.1657 34.7783 43.8665C35.6919 44.4638 37.1541 44.9891 39.165 45.4423C41.7714 46.0553 43.4775 46.6408 44.2832 47.1989C45.5957 48.1249 46.2525 49.6673 46.2537 51.8261C46.2537 53.8604 45.5738 55.4327 44.2141 56.5433C43.0651 57.4917 41.6726 57.9659 40.0364 57.9659C38.7829 57.9659 37.6626 57.7696 36.6754 57.377C35.6882 56.9844 34.8333 56.3366 34.1108 55.4336C32.8365 57.0601 32.1673 57.9048 32.1033 57.9676V49.4393L32.3561 49.4082C32.7601 51.18 33.2169 52.6015 33.7265 53.6727C34.1513 54.5785 34.6505 55.3304 35.2241 55.9283C36.3478 57.1022 37.9831 57.6894 40.13 57.69C41.1261 57.6908 42.0928 57.3528 42.8707 56.7317C43.8259 55.9947 44.3034 55.0693 44.3034 53.9554C44.3034 52.5959 43.6553 51.5299 42.365 50.7467C41.4734 50.2116 39.921 49.6507 37.7078 49.0641C35.4947 48.4774 33.9532 47.8748 33.0834 47.2561C31.8142 46.3307 31.1771 44.9745 31.1771 43.2027C31.1771 41.6115 31.7575 40.2654 32.9183 39.1645C33.4633 38.628 34.1097 38.2051 34.82 37.9205C35.5303 37.6358 36.2902 37.495 37.0555 37.5062C38.4149 37.5062 39.535 37.7014 40.4056 38.0952C40.6845 38.2222 41.3166 38.6159 42.2934 39.2721Z" fill="url(#paint8_linear)"/>
<path fill-rule="evenodd" clip-rule="evenodd" d="M83.2114 28.3444C85.5937 28.3444 87.4139 27.6377 88.6719 26.2243C89.9299 24.8109 90.5594 22.6757 90.5605 19.8186H90.9457V28.6885H71.5903V28.4016C72.4583 28.4016 73.1983 28.3735 73.8102 28.3175C74.422 28.2614 74.8412 28.1887 75.0676 28.0996C75.2924 28.0132 75.4404 27.9077 75.5118 27.7832C75.5809 27.6545 75.6154 27.3239 75.6154 26.7888V12.0449C75.6154 11.4897 75.5758 11.1405 75.4966 11.0068C75.457 10.9302 75.328 10.8537 75.0971 10.7771C74.8662 10.7005 74.4229 10.624 73.7655 10.5474C73.0432 10.4674 72.317 10.4289 71.5903 10.4322V10.1739H83.7542V10.4322C82.6496 10.4322 81.7863 10.4602 81.1643 10.5163C80.5423 10.5724 80.1035 10.6489 79.8479 10.746C79.5951 10.8419 79.4433 10.9277 79.4037 11.0043C79.3043 11.1725 79.2554 11.5259 79.2554 12.0424V26.7602C79.2554 27.3155 79.295 27.6747 79.3742 27.8278C79.413 27.9044 79.5318 27.9809 79.7291 28.0566C80.3949 28.2485 81.5587 28.3444 83.2114 28.3444Z" fill="url(#paint9_linear)"/>
<path fill-rule="evenodd" clip-rule="evenodd" d="M63.1456 28.3444C65.5278 28.3444 67.3483 27.6377 68.6068 26.2243C69.8654 24.8109 70.4949 22.6757 70.4955 19.8186H70.8781V28.6885H51.5253V28.4016C52.3933 28.4016 53.1333 28.3735 53.7452 28.3175C54.357 28.2614 54.7762 28.1887 55.0026 28.0996C55.2293 28.0154 55.3768 27.9077 55.4467 27.7832C55.5167 27.6587 55.5504 27.3239 55.5504 26.7888V12.0449C55.5504 11.4897 55.5108 11.1405 55.4316 11.0068C55.3917 10.9299 55.2585 10.8534 55.0321 10.7771C54.8057 10.7008 54.3618 10.6243 53.7005 10.5474C52.9782 10.4674 52.252 10.429 51.5253 10.4322V10.1739H63.6892V10.4322C62.5823 10.4322 61.7199 10.4602 61.1018 10.5163C60.4838 10.5724 60.0447 10.6489 59.7846 10.746C59.5283 10.8419 59.3803 10.928 59.3404 11.0043C59.2418 11.1725 59.1929 11.5259 59.1929 12.0424V26.7602C59.1929 27.3155 59.2317 27.6747 59.3109 27.8278C59.3508 27.9047 59.4691 27.9809 59.6657 28.0566C60.3298 28.2485 61.4937 28.3444 63.1456 28.3444Z" fill="url(#paint10_linear)"/>
<path fill-rule="evenodd" clip-rule="evenodd" d="M92 57.7312V57.4527C91.7247 57.4527 91.3797 57.4322 90.9651 57.3913C90.5504 57.3504 90.2636 57.2988 90.1046 57.2365C89.9453 57.1751 89.845 57.1027 89.802 57.0203C89.738 56.8966 89.7068 56.6392 89.7068 56.2429V48.0385C89.7116 47.5998 89.627 47.1648 89.4581 46.7598C89.2891 46.3548 89.0394 45.9884 88.7241 45.6828C87.9375 44.8976 86.8897 44.505 85.5805 44.505C85.4963 44.505 85.3631 44.5159 85.1819 44.5361C85.02 44.5562 84.8571 44.5666 84.6939 44.5673C83.7669 44.6699 83.032 45.1562 82.5027 46.0454C82.1892 46.5965 81.9448 47.3478 81.7745 48.2909C81.7745 47.1829 81.4568 46.2919 80.8138 45.613C80.1126 44.8743 79.0785 44.505 77.7115 44.505C77.6272 44.505 77.5041 44.5101 77.3449 44.521C77.1856 44.5319 76.9943 44.5462 76.7819 44.5673C75.8211 44.6699 75.0963 45.1957 74.605 46.138C74.3075 46.7151 74.0841 47.4925 73.9358 48.476V44.5361L68.2049 45.0611V45.3396C69.3516 45.3396 70.0846 45.3912 70.4037 45.4944C70.5099 45.5359 70.6374 45.6593 70.7863 45.8646C70.8795 45.9917 70.9294 46.1453 70.9287 46.3029C70.9397 46.488 70.9456 46.6739 70.9456 46.859V56.2429C70.9456 56.7427 70.8816 57.0405 70.7543 57.144C70.3566 57.275 69.9447 57.3581 69.5272 57.3913C69.0704 57.4328 68.619 57.4533 68.1729 57.4527V57.7312H76.2299V57.4527C75.9534 57.4527 75.6082 57.4322 75.1941 57.3913C74.7803 57.3501 74.4929 57.2988 74.3344 57.2365C74.2185 57.203 74.1138 57.1391 74.031 57.0514C73.9678 56.9227 73.9358 56.6552 73.9358 56.2429V50.1552C74.1482 48.6257 74.4347 47.4412 74.7954 46.6167C75.327 45.4389 76.0706 44.8485 77.0263 44.8457C77.7696 44.8457 78.2795 45.2664 78.5551 46.1178C78.7237 46.6377 78.8079 47.389 78.8079 48.3834V56.2429C78.8079 56.7376 78.7447 57.0405 78.6166 57.144L78.3933 57.2365C77.9472 57.3812 77.3207 57.4533 76.5139 57.4527V57.7312H84.0989V57.4527C83.7325 57.4508 83.3665 57.4252 83.0033 57.3762C82.7286 57.3477 82.4568 57.2959 82.1909 57.2214C82.0808 57.1947 81.9811 57.1361 81.9043 57.0531C81.8403 56.9244 81.8091 56.6568 81.8091 56.2446V50.0316C82.1057 48.0225 82.5339 46.6355 83.0935 45.8704C83.5823 45.1848 84.2034 44.8457 84.9518 44.8457C85.68 44.8457 86.1789 45.2664 86.4596 46.1178C86.6281 46.6579 86.7124 47.41 86.7124 48.3834V56.2429C86.7124 56.7166 86.6483 57.0102 86.5211 57.1128C86.2445 57.2646 85.9422 57.3641 85.6294 57.4064C85.2372 57.4424 84.8434 57.4579 84.4495 57.4527V57.7312H92Z" fill="url(#paint11_linear)"/>
<path fill-rule="evenodd" clip-rule="evenodd" d="M48.8023 28.1837C48.5067 28.0407 48.2106 27.5752 47.914 26.7872L41.5215 9.94006H40.9315L35.9287 23.4506C35.277 25.1965 34.7432 26.3477 34.3274 26.9041C33.5796 27.8997 32.525 28.3974 31.1636 28.3974V28.6885H38.6838V28.4016C37.6775 28.4016 36.8979 28.2485 36.3451 27.9423C35.7931 27.631 35.5166 27.1237 35.5166 26.4111C35.5166 25.9518 35.6354 25.4015 35.8714 24.7655L36.78 22.2298H42.4864L44.3659 27.3054L44.4248 27.5923C44.4248 27.9229 44.1484 28.1383 43.5964 28.2435C43.0444 28.3486 42.028 28.4016 40.548 28.4016V28.6885H51.4655V28.4016C49.9867 28.3988 49.0989 28.3262 48.8023 28.1837ZM39.6277 14.6L42.3356 21.9101H36.9249" fill="url(#paint12_linear)"/>
<path fill-rule="evenodd" clip-rule="evenodd" d="M56.9722 38.9423C56.9752 38.9049 56.9871 38.8688 57.0071 38.837C57.027 38.8052 57.0544 38.7787 57.0868 38.7597C57.141 38.7282 57.2053 38.7188 57.2663 38.7335C57.3272 38.7483 57.3801 38.786 57.4138 38.8388L57.4197 38.8481L57.4349 38.8733L57.4543 38.9027C57.4677 38.9229 57.4821 38.9431 57.4972 38.9625C57.5259 39.0037 57.5596 39.0466 57.5908 39.0828C57.6574 39.1602 57.7265 39.2376 57.8015 39.3108C57.8765 39.384 57.9532 39.453 58.0333 39.5211L58.1571 39.6187C58.1993 39.6507 58.2414 39.6809 58.2852 39.7121C58.3291 39.7432 58.3695 39.7718 58.4176 39.7962C58.4656 39.8206 58.5069 39.8551 58.5532 39.8803C58.6468 39.9317 58.7378 39.9872 58.8356 40.0309L58.9805 40.1008L59.1263 40.1613C59.219 40.2042 59.3311 40.2387 59.4373 40.2758L59.5966 40.3313C59.6548 40.3498 59.7112 40.3725 59.7652 40.3961C59.8191 40.4196 59.8756 40.4482 59.9337 40.4751C59.9919 40.5021 60.0399 40.5366 60.0905 40.571C60.1928 40.6399 60.2867 40.7203 60.3703 40.8108C60.4532 40.9005 60.5227 41.0017 60.5768 41.1112C60.6797 41.3228 60.7283 41.5567 60.7184 41.7918C60.7142 41.9051 60.6992 42.0178 60.6737 42.1283C60.6489 42.2372 60.6136 42.3434 60.5683 42.4455C60.5893 42.3381 60.6011 42.2292 60.6037 42.1199C60.6084 42.0122 60.6034 41.9044 60.5886 41.7977C60.5646 41.5908 60.4922 41.3925 60.377 41.2189C60.3194 41.1365 60.2514 41.0619 60.1748 40.9967C60.0973 40.9311 60.0124 40.8746 59.9219 40.8285C59.8306 40.7814 59.7356 40.7418 59.6379 40.7099C59.5885 40.6926 59.5381 40.6783 59.4871 40.667L59.3185 40.6249C59.2081 40.5946 59.1019 40.5702 58.9856 40.5281L58.817 40.4709L58.6535 40.4028C58.5423 40.3599 58.4378 40.3044 58.3316 40.2522C58.2785 40.2261 58.2288 40.195 58.1765 40.1681C58.1243 40.1411 58.0737 40.1092 58.0248 40.0755C57.9759 40.0419 57.9254 40.0107 57.8765 39.9771L57.7341 39.8702C57.6405 39.7962 57.5503 39.7205 57.4635 39.638L57.4467 39.6212C57.4467 39.6288 57.4467 39.6364 57.4467 39.6439C57.4599 39.866 57.4864 40.0871 57.5259 40.306C57.5453 40.4154 57.5672 40.5239 57.595 40.6308C57.6068 40.6855 57.622 40.7385 57.638 40.7915C57.654 40.8445 57.6683 40.8975 57.6869 40.9496C57.7206 41.054 57.761 41.1566 57.804 41.2576L57.8731 41.4065L57.9498 41.5512C58.0048 41.6456 58.065 41.7369 58.1302 41.8246C58.1462 41.8473 58.1614 41.87 58.1782 41.8911L58.2321 41.9533C58.267 41.9957 58.3041 42.0361 58.3434 42.0745C58.3822 42.1115 58.4184 42.1544 58.4622 42.1889L58.5895 42.2949L58.7277 42.3891L58.7623 42.4127L58.7993 42.4329L58.8735 42.4732L58.9468 42.5153L59.0244 42.5498C59.0766 42.5717 59.128 42.5986 59.182 42.6171L59.3455 42.6726L59.3868 42.6861L59.4297 42.697L59.514 42.7181C59.6278 42.7475 59.7431 42.7703 59.8596 42.7862H59.8823L59.8368 42.7618C59.7146 42.6903 59.5966 42.6078 59.4761 42.5279C59.3556 42.448 59.2477 42.3529 59.144 42.2562C59.0411 42.1638 58.9435 42.0658 58.8516 41.9626C58.8086 41.9112 58.7623 41.8641 58.7235 41.8128C58.6847 41.7615 58.646 41.711 58.6106 41.6614C58.5752 41.6117 58.5414 41.5621 58.5111 41.5133C58.4808 41.4645 58.4496 41.4182 58.4268 41.3703C58.3796 41.2858 58.3371 41.1987 58.2996 41.1095C58.2703 41.0413 58.2447 40.9717 58.2229 40.9008C58.2052 40.8403 58.1942 40.7932 58.1883 40.7612C58.1842 40.7446 58.1813 40.7277 58.1799 40.7107L58.2128 40.7494C58.233 40.7755 58.2675 40.81 58.3072 40.8554C58.3468 40.9008 58.3965 40.9547 58.4555 41.0144C58.5145 41.0741 58.5785 41.1406 58.6502 41.2121C58.6847 41.2483 58.7243 41.2836 58.7631 41.3206C58.8019 41.3577 58.8406 41.3989 58.8853 41.4359C58.93 41.4729 58.9696 41.5141 59.0151 41.5545C59.0606 41.5949 59.1078 41.6328 59.155 41.674C59.2022 41.7152 59.2477 41.7581 59.2991 41.796C59.3505 41.8338 59.4002 41.8751 59.4508 41.9171C59.5014 41.9592 59.5553 41.9954 59.6067 42.0366L59.7643 42.1561L60.0896 42.3824C60.2017 42.4514 60.3079 42.5254 60.4133 42.5935C60.5186 42.6617 60.6257 42.7223 60.7243 42.7845C60.7723 42.8182 60.8237 42.8417 60.8709 42.8686L61.0091 42.9528C61.0934 43.0066 61.1777 43.0588 61.2527 43.0975C61.3277 43.1362 61.3909 43.1766 61.4432 43.2085C61.4954 43.2405 61.535 43.2666 61.5637 43.2851C61.5418 43.238 61.5114 43.1757 61.4794 43.0958C61.4474 43.0159 61.3951 42.8922 61.3437 42.7593C61.2923 42.6264 61.2451 42.4791 61.1937 42.3151C61.1667 42.2309 61.1457 42.1468 61.1212 42.0568C61.0968 41.9668 61.0723 41.8742 61.0529 41.7775C61.0336 41.6807 61.0125 41.5823 60.9923 41.4805C60.972 41.3787 60.9594 41.2735 60.9425 41.1675L60.9198 40.9766C60.8203 40.8579 60.7243 40.7376 60.6349 40.6114C60.5213 40.4514 60.4171 40.2848 60.3231 40.1125C60.2291 39.9394 60.1478 39.7597 60.0795 39.5749C60.013 39.3884 59.9603 39.1972 59.9219 39.0029C59.8439 38.6108 59.8308 38.2087 59.8832 37.8124C59.9385 37.4146 60.0497 37.0266 60.2135 36.6598C60.3766 36.2932 60.5792 35.9453 60.8178 35.6225C61.0551 35.2996 61.3172 34.9955 61.6016 34.713C61.8863 34.4316 62.1877 34.1675 62.5042 33.9222C62.6627 33.8002 62.8245 33.6816 62.9905 33.5689C63.1565 33.4561 63.3226 33.3468 63.5063 33.2416C63.5395 33.2231 63.5766 33.2124 63.6146 33.2105C63.6526 33.2086 63.6905 33.2155 63.7254 33.2307C63.7537 33.2425 63.7794 33.26 63.8008 33.2819C63.8222 33.3039 63.839 33.33 63.8501 33.3586C63.8611 33.3872 63.8664 33.4177 63.8654 33.4483C63.8644 33.479 63.8572 33.5091 63.8442 33.5369L63.8392 33.547L63.8148 33.5975C63.8063 33.616 63.7987 33.6362 63.7903 33.6555C63.7735 33.6942 63.7583 33.7338 63.7431 33.7742C63.7111 33.8541 63.6867 33.9382 63.6588 34.0207C63.61 34.1889 63.5653 34.3572 63.5324 34.5296C63.4996 34.7021 63.4743 34.8754 63.4549 35.0496L63.433 35.3121C63.4279 35.3962 63.4271 35.4879 63.4245 35.5762C63.422 35.6646 63.4245 35.7521 63.4245 35.8404C63.4245 35.9287 63.4245 36.0162 63.4355 36.1046C63.454 36.2804 63.4633 36.4571 63.4962 36.6321L63.5392 36.8946L63.5956 37.1469C63.6268 37.3152 63.6799 37.4936 63.7347 37.6685L63.8114 37.9319C63.824 37.9781 63.8392 38.0236 63.8501 38.0699L63.8822 38.2103C63.9049 38.3021 63.915 38.3988 63.9294 38.493C63.937 38.541 63.937 38.5889 63.9412 38.6369C63.9457 38.685 63.9476 38.7333 63.9471 38.7816C63.949 38.9752 63.9281 39.1683 63.8847 39.357C63.8406 39.5459 63.7696 39.7275 63.674 39.8963C63.4819 40.2311 63.2119 40.5147 62.8868 40.7233C62.7279 40.8272 62.5604 40.9176 62.3862 40.9934C62.2134 41.0693 62.0336 41.1285 61.8494 41.1701C62.0242 41.105 62.1933 41.0257 62.355 40.9328C62.5148 40.8423 62.6667 40.7388 62.8093 40.6232C62.949 40.5102 63.077 40.3834 63.1911 40.2446C63.3028 40.1084 63.3963 39.9582 63.4692 39.7979C63.5411 39.6415 63.5921 39.4763 63.6209 39.3066C63.6474 39.1369 63.6542 38.9646 63.6411 38.7934C63.6411 38.7505 63.631 38.7092 63.626 38.6647C63.6209 38.6201 63.6175 38.5805 63.6074 38.5368C63.588 38.4526 63.5771 38.3685 63.5501 38.2844L63.5156 38.159C63.5038 38.117 63.4878 38.0749 63.4734 38.0345L63.3824 37.7746C63.3226 37.6012 63.2585 37.433 63.2138 37.2454L63.1397 36.9694L63.0866 36.6935C63.0461 36.5092 63.0301 36.3225 63.0023 36.1357C62.9905 36.0423 62.9888 35.9481 62.9821 35.8539C62.9753 35.7596 62.9694 35.6662 62.9711 35.5712C62.9728 35.4761 62.9711 35.3827 62.9711 35.2885L62.9888 35.0058C63.0065 34.8174 63.0284 34.6298 63.0638 34.443C63.0891 34.2983 63.122 34.1553 63.1608 34.0122C63.036 34.0992 62.913 34.1884 62.7916 34.2798C62.487 34.511 62.1961 34.7596 61.9202 35.0243C61.6446 35.2853 61.3891 35.5665 61.1558 35.8656C61.0403 36.0137 60.9316 36.1677 60.8305 36.325C60.7288 36.4815 60.636 36.6436 60.5523 36.8104C60.4697 36.9766 60.3974 37.1477 60.3357 37.3228C60.2751 37.4977 60.2272 37.6768 60.1925 37.8587C60.0872 38.4093 60.1102 38.9766 60.2599 39.5169C60.3108 39.6996 60.3727 39.8792 60.4453 40.0545C60.52 40.2309 60.6044 40.4031 60.6981 40.5702C60.7428 40.6543 60.7942 40.7385 60.8431 40.8226C60.8667 40.8613 60.8911 40.8992 60.9156 40.937C60.9004 40.7948 60.8886 40.6501 60.8819 40.5037C60.876 40.3902 60.8734 40.2757 60.8717 40.1613C60.8701 40.0469 60.876 39.9308 60.8785 39.8156C60.881 39.7003 60.892 39.5859 60.9021 39.4706C60.9122 39.3554 60.9257 39.2426 60.9425 39.1341C60.951 39.0777 60.9586 39.0214 60.967 38.9658C60.9754 38.9103 60.9872 38.8548 60.9982 38.7976C61.0167 38.6882 61.042 38.5805 61.0673 38.4754C61.1187 38.265 61.1777 38.064 61.2434 37.8764C61.3092 37.6887 61.3808 37.5146 61.4533 37.3573C61.5257 37.1999 61.6016 37.0594 61.6716 36.9366C61.7415 36.8138 61.8115 36.7128 61.8688 36.6295C61.9261 36.5463 61.9783 36.4848 62.012 36.4428C62.0457 36.4007 62.0677 36.3805 62.0677 36.3805L62.0356 36.4562C62.0154 36.505 61.9884 36.5791 61.9514 36.6708C61.9143 36.7625 61.8797 36.8777 61.8384 37.0073C61.7971 37.1368 61.7541 37.2841 61.712 37.4456C61.6699 37.6071 61.6277 37.7821 61.5881 37.9672C61.5485 38.1523 61.5139 38.3492 61.4802 38.5561C61.4465 38.7631 61.4212 38.9709 61.4019 39.1863C61.3825 39.4016 61.3648 39.6195 61.3547 39.8383C61.3547 39.9485 61.3471 40.0579 61.3454 40.1672C61.3437 40.2766 61.3454 40.386 61.3454 40.4945C61.3454 40.603 61.3454 40.7099 61.3521 40.8159C61.3589 40.9219 61.3606 41.027 61.3656 41.1305C61.3707 41.234 61.3799 41.335 61.3842 41.4351C61.3884 41.5352 61.401 41.6319 61.4086 41.727C61.4162 41.8221 61.4288 41.9138 61.4364 42.0038C61.444 42.0938 61.4533 42.1805 61.4651 42.2629C61.4861 42.4312 61.5022 42.5826 61.5232 42.7181C61.5443 42.8535 61.5536 42.9704 61.5704 43.0706C61.5873 43.1707 61.5932 43.2321 61.5999 43.2843C61.6142 43.2565 61.6336 43.2203 61.6564 43.1757C61.6791 43.1311 61.723 43.0571 61.7668 42.9839C61.8162 42.9012 61.8708 42.8217 61.9303 42.7458C61.9952 42.6617 62.0626 42.5691 62.1452 42.4791C62.2278 42.3891 62.318 42.2982 62.4132 42.204C62.4612 42.1577 62.5152 42.1157 62.5674 42.0703L62.5927 42.0492C62.6035 42.0062 62.6167 41.9637 62.6323 41.9222C62.6714 41.8103 62.7175 41.7009 62.7705 41.5949C62.8235 41.4866 62.8844 41.3823 62.9526 41.2828C62.9863 41.2323 63.0268 41.186 63.0638 41.1372C63.0832 41.1128 63.1018 41.0884 63.1211 41.0649L63.1852 40.9976L63.2509 40.932L63.2838 40.8992L63.3192 40.8689L63.4633 40.7494L63.6201 40.6426C63.6715 40.6064 63.7288 40.5803 63.7836 40.5475C63.8377 40.5155 63.894 40.4874 63.9521 40.4634L64.0364 40.4247C64.0659 40.4129 64.0962 40.4036 64.1257 40.3927C64.2456 40.3503 64.368 40.3157 64.4923 40.2892L64.6795 40.2547L64.8674 40.2312C64.993 40.2202 65.1202 40.2127 65.245 40.2135C65.3082 40.2135 65.3705 40.2135 65.4329 40.2135C65.4953 40.2135 65.5585 40.2185 65.62 40.2253C65.7447 40.2345 65.8686 40.2497 65.9917 40.2682C66.1147 40.2867 66.2361 40.3111 66.3566 40.338C66.4771 40.3649 66.5985 40.3935 66.7165 40.4289C66.8344 40.4642 66.9533 40.5012 67.0696 40.5408C67.1859 40.5803 67.2988 40.6249 67.4219 40.6787C67.456 40.6942 67.4859 40.7175 67.5092 40.7467C67.5325 40.776 67.5485 40.8103 67.5559 40.847C67.5613 40.8772 67.5606 40.9082 67.5539 40.9381C67.5472 40.968 67.5345 40.9963 67.5167 41.0213C67.4989 41.0463 67.4763 41.0675 67.4501 41.0837C67.424 41.0998 67.3949 41.1106 67.3646 41.1154H67.3528L67.3241 41.1204L67.2887 41.128C67.2643 41.1322 67.2398 41.1381 67.2145 41.1448C67.1657 41.1566 67.1159 41.1726 67.0662 41.1877C66.9676 41.2205 66.869 41.2559 66.7721 41.2971C66.6752 41.3383 66.5808 41.3854 66.4872 41.4334L66.3482 41.5108C66.3027 41.5377 66.2588 41.5663 66.2133 41.5949C66.1678 41.6235 66.129 41.653 66.0827 41.6841C66.0363 41.7152 65.9942 41.7438 65.9537 41.7775C65.8695 41.8439 65.7852 41.9062 65.7076 41.9802L65.5888 42.0862L65.4793 42.1973C65.4042 42.2663 65.3326 42.3555 65.2593 42.4387L65.159 42.57C65.1211 42.6154 65.0789 42.6583 65.0359 42.7012C64.993 42.7441 64.9466 42.7854 64.9011 42.8232C64.8556 42.8611 64.8042 42.8973 64.7528 42.9317C64.6492 42.9999 64.5384 43.0563 64.4224 43.1C64.306 43.1443 64.1841 43.1726 64.06 43.1841C63.8189 43.2025 63.5769 43.1636 63.3537 43.0706C63.2464 43.0267 63.1432 42.9735 63.0453 42.9116C62.9491 42.8508 62.8591 42.7809 62.7764 42.7029C62.8728 42.7606 62.9737 42.8104 63.0782 42.8518C63.1803 42.8938 63.2857 42.9273 63.3934 42.9519C63.6008 43.0032 63.817 43.0075 64.0263 42.9646C64.1265 42.9431 64.2236 42.9092 64.3154 42.8636C64.4057 42.8172 64.4905 42.7608 64.5682 42.6953C64.6456 42.6293 64.7175 42.5569 64.7831 42.4791C64.8172 42.4406 64.849 42.4002 64.8783 42.358L64.9778 42.2234C65.0444 42.135 65.1067 42.0467 65.1876 41.9558L65.3048 41.8212L65.4278 41.6967C65.5079 41.6126 65.5964 41.5369 65.6866 41.4578C65.7304 41.4191 65.7793 41.3854 65.8256 41.3484C65.872 41.3114 65.9192 41.2761 65.9681 41.2433C66.0169 41.2104 66.0658 41.1759 66.1156 41.144L66.2689 41.0523C66.3734 40.9942 66.4788 40.9387 66.5892 40.8899L66.6111 40.8806L66.5892 40.8739C66.37 40.8073 66.1471 40.753 65.9217 40.7115C65.8105 40.6897 65.6975 40.6712 65.5846 40.6585C65.5281 40.6501 65.4717 40.6451 65.416 40.6409C65.3604 40.6367 65.3031 40.6308 65.2475 40.6291C65.1346 40.6224 65.0216 40.6232 64.9104 40.6291L64.7418 40.6384L64.5733 40.6577C64.4628 40.6732 64.3533 40.6951 64.2454 40.7233C64.2184 40.7301 64.1915 40.7359 64.1611 40.7444L64.0828 40.7704C64.0294 40.7868 63.9771 40.8062 63.926 40.8285C63.8763 40.8512 63.8223 40.868 63.7743 40.8949L63.6302 40.9715L63.4911 41.0632L63.4557 41.0859L63.4229 41.1128L63.3588 41.165L63.2914 41.2172L63.2307 41.2752C63.1911 41.3148 63.1464 41.3518 63.1093 41.3938L62.9981 41.5234L62.9703 41.5554L62.9458 41.5907L62.8944 41.6597C62.8261 41.7525 62.7637 41.8494 62.7073 41.9499C62.7034 41.9559 62.6997 41.9621 62.6964 41.9685L62.736 41.9356C62.8481 41.8515 62.9703 41.7724 63.0891 41.6917C63.2079 41.6109 63.342 41.5461 63.4684 41.4864C63.5944 41.426 63.7235 41.3724 63.8552 41.3257C63.9201 41.3038 63.9816 41.2794 64.0457 41.2626C64.1097 41.2458 64.1713 41.2281 64.2311 41.213C64.2909 41.1978 64.3516 41.1869 64.4098 41.1759C64.4679 41.165 64.5227 41.1541 64.5783 41.149C64.6767 41.1363 64.7758 41.1287 64.875 41.1263C64.9593 41.1221 65.0435 41.1263 65.1042 41.1305C65.1649 41.1347 65.2171 41.1431 65.25 41.149C65.2674 41.1513 65.2845 41.1546 65.3014 41.1591L65.2525 41.1751C65.2205 41.1844 65.175 41.2037 65.1169 41.2231C65.0587 41.2424 64.9896 41.2693 64.9112 41.3013C64.8328 41.3333 64.7427 41.3686 64.6516 41.4073C64.6044 41.4267 64.5564 41.4502 64.5067 41.4721C64.457 41.494 64.4047 41.515 64.3524 41.5419C64.3002 41.5688 64.2471 41.5924 64.1923 41.6176L64.0238 41.7018C63.9681 41.732 63.91 41.7573 63.8552 41.7859C63.8004 41.8145 63.7431 41.849 63.6866 41.8793C63.6302 41.9096 63.5746 41.9474 63.5181 41.9794L63.3495 42.0803L63.0124 42.2949C62.9071 42.3714 62.7984 42.4421 62.6947 42.5136C62.591 42.5851 62.4958 42.6608 62.4006 42.7282C62.3508 42.7593 62.3095 42.798 62.2657 42.8308C62.2219 42.8636 62.1814 42.8956 62.1393 42.9267C62.055 42.9881 61.9775 43.042 61.9134 43.095C61.8494 43.148 61.7879 43.1917 61.7381 43.2287L61.6134 43.3129C61.6176 43.349 61.6193 43.3692 61.6193 43.3692L61.5974 43.323L61.5772 43.3364C61.5772 43.3364 61.5772 43.3263 61.5898 43.3087C61.5897 43.3059 61.5897 43.303 61.5898 43.3002C61.5569 43.3002 61.5013 43.2935 61.4212 43.2843C61.3589 43.2767 61.283 43.2666 61.1962 43.2523C61.0994 43.2373 61.0037 43.216 60.9097 43.1883C60.8069 43.1589 60.6922 43.1311 60.5726 43.0891C60.4529 43.047 60.3366 42.9965 60.2127 42.9435C60.1512 42.9158 60.0905 42.8821 60.029 42.851L60.0003 42.8342C59.9548 42.8409 59.9089 42.8442 59.8629 42.8443C59.7412 42.8484 59.6193 42.8451 59.498 42.8342C59.3752 42.8251 59.2532 42.8069 59.1331 42.7795C59.0716 42.7677 59.0134 42.7475 58.9527 42.7307L58.8634 42.7046L58.7791 42.6701L58.6948 42.6339L58.6519 42.6163L58.6097 42.5944L58.4412 42.506L58.2844 42.4017C58.2305 42.3681 58.1841 42.3252 58.1344 42.2873C58.0848 42.2486 58.0381 42.2064 57.9945 42.1611L57.9262 42.0955C57.9043 42.0728 57.8849 42.0484 57.8639 42.0257C57.7805 41.9323 57.7037 41.8333 57.6338 41.7295L57.5343 41.5722L57.445 41.4098C57.3902 41.2996 57.338 41.1886 57.2941 41.0733C57.2705 41.0172 57.2495 40.9611 57.2309 40.905C57.2124 40.849 57.1938 40.7909 57.1753 40.7309C57.1407 40.6148 57.1112 40.497 57.086 40.3784C57.0607 40.2598 57.0404 40.1411 57.0227 40.0225C57.005 39.9039 56.9916 39.7836 56.984 39.6641C56.9764 39.5447 56.9697 39.4243 56.9671 39.304C56.9628 39.1834 56.9645 39.0627 56.9722 38.9423Z" fill="url(#paint13_linear)"/>
</g>
<defs>
<linearGradient id="paint0_linear" x1="52.5892" y1="37.5525" x2="52.5892" y2="57.7312" gradientUnits="userSpaceOnUse">
<stop stop-color="#A3854A"/>
<stop offset="0.2592" stop-color="#FAF3B9"/>
<stop offset="0.780043" stop-color="#A4854A"/>
<stop offset="1" stop-color="#F9F1B8"/>
</linearGradient>
<linearGradient id="paint1_linear" x1="20.0737" y1="16.9131" x2="20.0737" y2="53.1881" gradientUnits="userSpaceOnUse">
<stop stop-color="#A3854A"/>
<stop offset="0.2592" stop-color="#FAF3B9"/>
<stop offset="0.780043" stop-color="#A4854A"/>
<stop offset="1" stop-color="#F9F1B8"/>
</linearGradient>
<linearGradient id="paint2_linear" x1="14.1121" y1="7.23151" x2="14.1121" y2="13.9639" gradientUnits="userSpaceOnUse">
<stop stop-color="#A3854A"/>
<stop offset="0.2592" stop-color="#FAF3B9"/>
<stop offset="0.780043" stop-color="#A4854A"/>
<stop offset="1" stop-color="#F9F1B8"/>
</linearGradient>
<linearGradient id="paint3_linear" x1="19.8731" y1="5.37103" x2="19.8731" y2="12.1466" gradientUnits="userSpaceOnUse">
<stop stop-color="#A3854A"/>
<stop offset="0.2592" stop-color="#FAF3B9"/>
<stop offset="0.780043" stop-color="#A4854A"/>
<stop offset="1" stop-color="#F9F1B8"/>
</linearGradient>
<linearGradient id="paint4_linear" x1="14.2425" y1="7.19446" x2="14.2425" y2="13.926" gradientUnits="userSpaceOnUse">
<stop stop-color="#A3854A"/>
<stop offset="0.2592" stop-color="#FAF3B9"/>
<stop offset="0.780043" stop-color="#A4854A"/>
<stop offset="1" stop-color="#F9F1B8"/>
</linearGradient>
<linearGradient id="paint5_linear" x1="29.2044" y1="0.00115967" x2="29.2044" y2="65" gradientUnits="userSpaceOnUse">
<stop stop-color="#A3854A"/>
<stop offset="0.2592" stop-color="#FAF3B9"/>
<stop offset="0.780043" stop-color="#A4854A"/>
<stop offset="1" stop-color="#F9F1B8"/>
</linearGradient>
<linearGradient id="paint6_linear" x1="14.2425" y1="7.19446" x2="14.2425" y2="13.926" gradientUnits="userSpaceOnUse">
<stop stop-color="#A3854A"/>
<stop offset="0.2592" stop-color="#FAF3B9"/>
<stop offset="0.780043" stop-color="#A4854A"/>
<stop offset="1" stop-color="#F9F1B8"/>
</linearGradient>
<linearGradient id="paint7_linear" x1="62.6235" y1="44.5361" x2="62.6235" y2="57.7311" gradientUnits="userSpaceOnUse">
<stop stop-color="#A3854A"/>
<stop offset="0.2592" stop-color="#FAF3B9"/>
<stop offset="0.780043" stop-color="#A4854A"/>
<stop offset="1" stop-color="#F9F1B8"/>
</linearGradient>
<linearGradient id="paint8_linear" x1="38.7154" y1="37.5056" x2="38.7154" y2="57.9676" gradientUnits="userSpaceOnUse">
<stop stop-color="#A3854A"/>
<stop offset="0.2592" stop-color="#FAF3B9"/>
<stop offset="0.780043" stop-color="#A4854A"/>
<stop offset="1" stop-color="#F9F1B8"/>
</linearGradient>
<linearGradient id="paint9_linear" x1="81.268" y1="10.1739" x2="81.268" y2="28.6885" gradientUnits="userSpaceOnUse">
<stop stop-color="#A3854A"/>
<stop offset="0.2592" stop-color="#FAF3B9"/>
<stop offset="0.780043" stop-color="#A4854A"/>
<stop offset="1" stop-color="#F9F1B8"/>
</linearGradient>
<linearGradient id="paint10_linear" x1="61.2017" y1="10.1739" x2="61.2017" y2="28.6885" gradientUnits="userSpaceOnUse">
<stop stop-color="#A3854A"/>
<stop offset="0.2592" stop-color="#FAF3B9"/>
<stop offset="0.780043" stop-color="#A4854A"/>
<stop offset="1" stop-color="#F9F1B8"/>
</linearGradient>
<linearGradient id="paint11_linear" x1="80.0864" y1="44.505" x2="80.0864" y2="57.7312" gradientUnits="userSpaceOnUse">
<stop stop-color="#A3854A"/>
<stop offset="0.2592" stop-color="#FAF3B9"/>
<stop offset="0.780043" stop-color="#A4854A"/>
<stop offset="1" stop-color="#F9F1B8"/>
</linearGradient>
<linearGradient id="paint12_linear" x1="41.3145" y1="9.94006" x2="41.3145" y2="28.6885" gradientUnits="userSpaceOnUse">
<stop stop-color="#A3854A"/>
<stop offset="0.2592" stop-color="#FAF3B9"/>
<stop offset="0.780043" stop-color="#A4854A"/>
<stop offset="1" stop-color="#F9F1B8"/>
</linearGradient>
<linearGradient id="paint13_linear" x1="62.2621" y1="33.2102" x2="62.2621" y2="43.3692" gradientUnits="userSpaceOnUse">
<stop stop-color="#A3854A"/>
<stop offset="0.2592" stop-color="#FAF3B9"/>
<stop offset="0.780043" stop-color="#A4854A"/>
<stop offset="1" stop-color="#F9F1B8"/>
</linearGradient>
<clipPath id="clip0">
<rect width="92" height="65" fill="white"/>
</clipPath>
</defs>
</svg>
