<svg width="26" height="16" viewBox="0 0 26 16" fill="none" xmlns="http://www.w3.org/2000/svg">
<path fill-rule="evenodd" clip-rule="evenodd" d="M17.5602 0.872757C17.4613 0.971454 17.3828 1.0887 17.3292 1.21779C17.2757 1.34687 17.2481 1.48525 17.2481 1.62501C17.2481 1.76476 17.2757 1.90314 17.3292 2.03223C17.3828 2.16131 17.4613 2.27856 17.5602 2.37726L23.1851 8.00001L17.5602 13.6228C17.4615 13.7215 17.3831 13.8388 17.3296 13.9679C17.2762 14.097 17.2486 14.2353 17.2486 14.375C17.2486 14.5147 17.2762 14.653 17.3296 14.7821C17.3831 14.9112 17.4615 15.0285 17.5602 15.1273C17.659 15.226 17.7763 15.3044 17.9054 15.3579C18.0344 15.4113 18.1728 15.4388 18.3125 15.4388C18.4522 15.4388 18.5905 15.4113 18.7196 15.3579C18.8487 15.3044 18.966 15.226 19.0647 15.1273L25.4397 8.75226C25.5387 8.65356 25.6172 8.53631 25.6708 8.40723C25.7243 8.27814 25.7519 8.13976 25.7519 8.00001C25.7519 7.86025 25.7243 7.72187 25.6708 7.59278C25.6172 7.4637 25.5387 7.34645 25.4397 7.24776L19.0647 0.872757C18.966 0.77381 18.8488 0.695306 18.7197 0.641742C18.5906 0.588178 18.4522 0.560608 18.3125 0.560608C18.1727 0.560608 18.0344 0.588178 17.9053 0.641742C17.7762 0.695306 17.6589 0.77381 17.5602 0.872757Z" fill="#282A33"/>
<path fill-rule="evenodd" clip-rule="evenodd" d="M24.6875 8C24.6875 7.71821 24.5756 7.44796 24.3763 7.2487C24.177 7.04944 23.9068 6.9375 23.625 6.9375H1.3125C1.03071 6.9375 0.760456 7.04944 0.561199 7.2487C0.36194 7.44796 0.25 7.71821 0.25 8C0.25 8.28179 0.36194 8.55204 0.561199 8.7513C0.760456 8.95056 1.03071 9.0625 1.3125 9.0625H23.625C23.9068 9.0625 24.177 8.95056 24.3763 8.7513C24.5756 8.55204 24.6875 8.28179 24.6875 8Z" fill="#282A33"/>
</svg>
