<svg width="26" height="16" viewBox="0 0 26 16" fill="none" xmlns="http://www.w3.org/2000/svg">
<path fill-rule="evenodd" clip-rule="evenodd" d="M8.43976 0.872757C8.5387 0.971454 8.61721 1.0887 8.67077 1.21779C8.72434 1.34687 8.75191 1.48525 8.75191 1.62501C8.75191 1.76476 8.72434 1.90314 8.67077 2.03223C8.61721 2.16131 8.5387 2.27856 8.43976 2.37726L2.81488 8.00001L8.43976 13.6228C8.53854 13.7215 8.61691 13.8388 8.67037 13.9679C8.72383 14.097 8.75135 14.2353 8.75135 14.375C8.75135 14.5147 8.72383 14.653 8.67037 14.7821C8.61691 14.9112 8.53854 15.0285 8.43976 15.1273C8.34097 15.226 8.22369 15.3044 8.09462 15.3579C7.96555 15.4113 7.82721 15.4388 7.68751 15.4388C7.5478 15.4388 7.40946 15.4113 7.28039 15.3579C7.15132 15.3044 7.03404 15.226 6.93526 15.1273L0.560257 8.75226C0.46131 8.65356 0.382807 8.53631 0.329243 8.40723C0.275679 8.27814 0.248108 8.13976 0.248108 8.00001C0.248108 7.86025 0.275679 7.72187 0.329243 7.59278C0.382807 7.4637 0.46131 7.34645 0.560257 7.24776L6.93526 0.872757C7.03395 0.77381 7.1512 0.695306 7.28029 0.641742C7.40937 0.588178 7.54775 0.560608 7.68751 0.560608C7.82726 0.560608 7.96565 0.588178 8.09473 0.641742C8.22381 0.695306 8.34106 0.77381 8.43976 0.872757Z" fill="#282A33"/>
<path fill-rule="evenodd" clip-rule="evenodd" d="M1.3125 8C1.3125 7.71821 1.42444 7.44796 1.6237 7.2487C1.82296 7.04944 2.09321 6.9375 2.375 6.9375H24.6875C24.9693 6.9375 25.2395 7.04944 25.4388 7.2487C25.6381 7.44796 25.75 7.71821 25.75 8C25.75 8.28179 25.6381 8.55204 25.4388 8.7513C25.2395 8.95056 24.9693 9.0625 24.6875 9.0625H2.375C2.09321 9.0625 1.82296 8.95056 1.6237 8.7513C1.42444 8.55204 1.3125 8.28179 1.3125 8Z" fill="#282A33"/>
</svg>
