<svg width="7" height="12" viewBox="0 0 7 12" fill="none" xmlns="http://www.w3.org/2000/svg">
<path fill-rule="evenodd" clip-rule="evenodd" d="M0.219613 0.968997C0.149768 1.03867 0.0943537 1.12143 0.0565443 1.21255C0.0187345 1.30366 -0.0007267 1.40135 -0.0007267 1.5C-0.0007267 1.59865 0.0187345 1.69633 0.0565443 1.78745C0.0943537 1.87857 0.149768 1.96133 0.219613 2.031L4.19011 6L0.219613 9.969C0.149881 10.0387 0.0945668 10.1215 0.056828 10.2126C0.0190897 10.3037 -0.00033474 10.4014 -0.00033474 10.5C-0.00033474 10.5986 0.0190897 10.6963 0.056828 10.7874C0.0945668 10.8785 0.149881 10.9613 0.219613 11.031C0.289345 11.1007 0.372128 11.156 0.463238 11.1938C0.554347 11.2315 0.651998 11.2509 0.750613 11.2509C0.849229 11.2509 0.946879 11.2315 1.03799 11.1938C1.1291 11.156 1.21188 11.1007 1.28161 11.031L5.78161 6.531C5.85146 6.46133 5.90687 6.37856 5.94468 6.28745C5.98249 6.19633 6.00195 6.09865 6.00195 6C6.00195 5.90135 5.98249 5.80366 5.94468 5.71255C5.90687 5.62143 5.85146 5.53866 5.78161 5.469L1.28161 0.968997C1.21194 0.899153 1.12918 0.843738 1.03806 0.805928C0.946946 0.768119 0.849264 0.748657 0.750613 0.748657C0.651962 0.748657 0.55428 0.768119 0.463163 0.805928C0.372045 0.843738 0.289282 0.899153 0.219613 0.968997Z" fill="#B69C60"/>
</svg>
