<svg width="12" height="7" viewBox="0 0 12 7" fill="none" xmlns="http://www.w3.org/2000/svg">
<path fill-rule="evenodd" clip-rule="evenodd" d="M0.96912 0.22034C1.03879 0.150495 1.12155 0.0950816 1.21267 0.057272C1.30379 0.0194623 1.40147 0 1.50012 0C1.59877 0 1.69645 0.0194623 1.78757 0.057272C1.87869 0.0950816 1.96145 0.150495 2.03112 0.22034L6.00012 4.19084L9.96912 0.22034C10.1099 0.0795103 10.301 0.000393391 10.5001 0.000393391C10.6993 0.000393391 10.8903 0.0795103 11.0311 0.22034C11.1719 0.36117 11.2511 0.552177 11.2511 0.75134C11.2511 0.950504 11.1719 1.14151 11.0311 1.28234L6.53112 5.78234C6.46145 5.85219 6.37869 5.9076 6.28757 5.94541C6.19645 5.98322 6.09877 6.00268 6.00012 6.00268C5.90147 6.00268 5.80379 5.98322 5.71267 5.94541C5.62155 5.9076 5.53879 5.85219 5.46912 5.78234L0.96912 1.28234C0.899275 1.21267 0.84386 1.12991 0.806051 1.03879C0.768241 0.947673 0.748779 0.849991 0.748779 0.75134C0.748779 0.652689 0.768241 0.555008 0.806051 0.463891C0.84386 0.372773 0.899275 0.290009 0.96912 0.22034Z" fill="#6C6D71"/>
</svg>
